<?xml version="1.0" encoding="utf-8" standalone="no"?>
<!DOCTYPE svg PUBLIC "-//W3C//DTD SVG 1.1//EN"
  "http://www.w3.org/Graphics/SVG/1.1/DTD/svg11.dtd">
<svg xmlns:xlink="http://www.w3.org/1999/xlink" width="360pt" height="360pt" viewBox="0 0 360 360" xmlns="http://www.w3.org/2000/svg" version="1.1">
 <metadata>
  <rdf:RDF xmlns:dc="http://purl.org/dc/elements/1.1/" xmlns:cc="http://creativecommons.org/ns#" xmlns:rdf="http://www.w3.org/1999/02/22-rdf-syntax-ns#">
   <cc:Work>
    <dc:type rdf:resource="http://purl.org/dc/dcmitype/StillImage"/>
    <dc:date>2022-10-01T20:59:00.086022</dc:date>
    <dc:format>image/svg+xml</dc:format>
    <dc:creator>
     <cc:Agent>
      <dc:title>Matplotlib v3.6.0, https://matplotlib.org/</dc:title>
     </cc:Agent>
    </dc:creator>
   </cc:Work>
  </rdf:RDF>
 </metadata>
 <defs>
  <style type="text/css">*{stroke-linejoin: round; stroke-linecap: butt}</style>
 </defs>
 <g id="figure_1">
  <g id="patch_1">
   <path d="M 0 360 
L 360 360 
L 360 0 
L 0 0 
z
" style="fill: #ffffff"/>
  </g>
  <g id="axes_1">
   <g id="patch_2">
    <path d="M 50.42 330.1355 
L 342.369595 330.1355 
L 342.369595 10.8 
L 50.42 10.8 
z
" style="fill: #ffffff"/>
   </g>
   <g id="patch_3">
    <path d="M 63.690436 330.1355 
L 64.810304 330.1355 
L 64.810304 328.647674 
L 63.690436 328.647674 
z
" clip-path="url(#pe41e23144b)" style="fill: #1f77b4; fill-opacity: 0.75; stroke: #000000; stroke-width: 0.118523; stroke-linejoin: miter"/>
   </g>
   <g id="patch_4">
    <path d="M 64.810304 330.1355 
L 65.930172 330.1355 
L 65.930172 330.1355 
L 64.810304 330.1355 
z
" clip-path="url(#pe41e23144b)" style="fill: #1f77b4; fill-opacity: 0.75; stroke: #000000; stroke-width: 0.118523; stroke-linejoin: miter"/>
   </g>
   <g id="patch_5">
    <path d="M 65.930172 330.1355 
L 67.05004 330.1355 
L 67.05004 330.1355 
L 65.930172 330.1355 
z
" clip-path="url(#pe41e23144b)" style="fill: #1f77b4; fill-opacity: 0.75; stroke: #000000; stroke-width: 0.118523; stroke-linejoin: miter"/>
   </g>
   <g id="patch_6">
    <path d="M 67.05004 330.1355 
L 68.169908 330.1355 
L 68.169908 330.1355 
L 67.05004 330.1355 
z
" clip-path="url(#pe41e23144b)" style="fill: #1f77b4; fill-opacity: 0.75; stroke: #000000; stroke-width: 0.118523; stroke-linejoin: miter"/>
   </g>
   <g id="patch_7">
    <path d="M 68.169908 330.1355 
L 69.289776 330.1355 
L 69.289776 330.1355 
L 68.169908 330.1355 
z
" clip-path="url(#pe41e23144b)" style="fill: #1f77b4; fill-opacity: 0.75; stroke: #000000; stroke-width: 0.118523; stroke-linejoin: miter"/>
   </g>
   <g id="patch_8">
    <path d="M 69.289776 330.1355 
L 70.409644 330.1355 
L 70.409644 330.1355 
L 69.289776 330.1355 
z
" clip-path="url(#pe41e23144b)" style="fill: #1f77b4; fill-opacity: 0.75; stroke: #000000; stroke-width: 0.118523; stroke-linejoin: miter"/>
   </g>
   <g id="patch_9">
    <path d="M 70.409644 330.1355 
L 71.529512 330.1355 
L 71.529512 330.1355 
L 70.409644 330.1355 
z
" clip-path="url(#pe41e23144b)" style="fill: #1f77b4; fill-opacity: 0.75; stroke: #000000; stroke-width: 0.118523; stroke-linejoin: miter"/>
   </g>
   <g id="patch_10">
    <path d="M 71.529512 330.1355 
L 72.64938 330.1355 
L 72.64938 330.1355 
L 71.529512 330.1355 
z
" clip-path="url(#pe41e23144b)" style="fill: #1f77b4; fill-opacity: 0.75; stroke: #000000; stroke-width: 0.118523; stroke-linejoin: miter"/>
   </g>
   <g id="patch_11">
    <path d="M 72.64938 330.1355 
L 73.769248 330.1355 
L 73.769248 328.997751 
L 72.64938 328.997751 
z
" clip-path="url(#pe41e23144b)" style="fill: #1f77b4; fill-opacity: 0.75; stroke: #000000; stroke-width: 0.118523; stroke-linejoin: miter"/>
   </g>
   <g id="patch_12">
    <path d="M 73.769248 330.1355 
L 74.889116 330.1355 
L 74.889116 330.1355 
L 73.769248 330.1355 
z
" clip-path="url(#pe41e23144b)" style="fill: #1f77b4; fill-opacity: 0.75; stroke: #000000; stroke-width: 0.118523; stroke-linejoin: miter"/>
   </g>
   <g id="patch_13">
    <path d="M 74.889116 330.1355 
L 76.008984 330.1355 
L 76.008984 330.1355 
L 74.889116 330.1355 
z
" clip-path="url(#pe41e23144b)" style="fill: #1f77b4; fill-opacity: 0.75; stroke: #000000; stroke-width: 0.118523; stroke-linejoin: miter"/>
   </g>
   <g id="patch_14">
    <path d="M 76.008984 330.1355 
L 77.128852 330.1355 
L 77.128852 330.1355 
L 76.008984 330.1355 
z
" clip-path="url(#pe41e23144b)" style="fill: #1f77b4; fill-opacity: 0.75; stroke: #000000; stroke-width: 0.118523; stroke-linejoin: miter"/>
   </g>
   <g id="patch_15">
    <path d="M 77.128852 330.1355 
L 78.248721 330.1355 
L 78.248721 330.1355 
L 77.128852 330.1355 
z
" clip-path="url(#pe41e23144b)" style="fill: #1f77b4; fill-opacity: 0.75; stroke: #000000; stroke-width: 0.118523; stroke-linejoin: miter"/>
   </g>
   <g id="patch_16">
    <path d="M 78.248721 330.1355 
L 79.368589 330.1355 
L 79.368589 329.435347 
L 78.248721 329.435347 
z
" clip-path="url(#pe41e23144b)" style="fill: #1f77b4; fill-opacity: 0.75; stroke: #000000; stroke-width: 0.118523; stroke-linejoin: miter"/>
   </g>
   <g id="patch_17">
    <path d="M 79.368589 330.1355 
L 80.488457 330.1355 
L 80.488457 330.1355 
L 79.368589 330.1355 
z
" clip-path="url(#pe41e23144b)" style="fill: #1f77b4; fill-opacity: 0.75; stroke: #000000; stroke-width: 0.118523; stroke-linejoin: miter"/>
   </g>
   <g id="patch_18">
    <path d="M 80.488457 330.1355 
L 81.608325 330.1355 
L 81.608325 330.1355 
L 80.488457 330.1355 
z
" clip-path="url(#pe41e23144b)" style="fill: #1f77b4; fill-opacity: 0.75; stroke: #000000; stroke-width: 0.118523; stroke-linejoin: miter"/>
   </g>
   <g id="patch_19">
    <path d="M 81.608325 330.1355 
L 82.728193 330.1355 
L 82.728193 329.172789 
L 81.608325 329.172789 
z
" clip-path="url(#pe41e23144b)" style="fill: #1f77b4; fill-opacity: 0.75; stroke: #000000; stroke-width: 0.118523; stroke-linejoin: miter"/>
   </g>
   <g id="patch_20">
    <path d="M 82.728193 330.1355 
L 83.848061 330.1355 
L 83.848061 330.1355 
L 82.728193 330.1355 
z
" clip-path="url(#pe41e23144b)" style="fill: #1f77b4; fill-opacity: 0.75; stroke: #000000; stroke-width: 0.118523; stroke-linejoin: miter"/>
   </g>
   <g id="patch_21">
    <path d="M 83.848061 330.1355 
L 84.967929 330.1355 
L 84.967929 330.1355 
L 83.848061 330.1355 
z
" clip-path="url(#pe41e23144b)" style="fill: #1f77b4; fill-opacity: 0.75; stroke: #000000; stroke-width: 0.118523; stroke-linejoin: miter"/>
   </g>
   <g id="patch_22">
    <path d="M 84.967929 330.1355 
L 86.087797 330.1355 
L 86.087797 329.172789 
L 84.967929 329.172789 
z
" clip-path="url(#pe41e23144b)" style="fill: #1f77b4; fill-opacity: 0.75; stroke: #000000; stroke-width: 0.118523; stroke-linejoin: miter"/>
   </g>
   <g id="patch_23">
    <path d="M 86.087797 330.1355 
L 87.207665 330.1355 
L 87.207665 330.1355 
L 86.087797 330.1355 
z
" clip-path="url(#pe41e23144b)" style="fill: #1f77b4; fill-opacity: 0.75; stroke: #000000; stroke-width: 0.118523; stroke-linejoin: miter"/>
   </g>
   <g id="patch_24">
    <path d="M 87.207665 330.1355 
L 88.327533 330.1355 
L 88.327533 328.822713 
L 87.207665 328.822713 
z
" clip-path="url(#pe41e23144b)" style="fill: #1f77b4; fill-opacity: 0.75; stroke: #000000; stroke-width: 0.118523; stroke-linejoin: miter"/>
   </g>
   <g id="patch_25">
    <path d="M 88.327533 330.1355 
L 89.447401 330.1355 
L 89.447401 330.1355 
L 88.327533 330.1355 
z
" clip-path="url(#pe41e23144b)" style="fill: #1f77b4; fill-opacity: 0.75; stroke: #000000; stroke-width: 0.118523; stroke-linejoin: miter"/>
   </g>
   <g id="patch_26">
    <path d="M 89.447401 330.1355 
L 90.567269 330.1355 
L 90.567269 328.822713 
L 89.447401 328.822713 
z
" clip-path="url(#pe41e23144b)" style="fill: #1f77b4; fill-opacity: 0.75; stroke: #000000; stroke-width: 0.118523; stroke-linejoin: miter"/>
   </g>
   <g id="patch_27">
    <path d="M 90.567269 330.1355 
L 91.687137 330.1355 
L 91.687137 329.08527 
L 90.567269 329.08527 
z
" clip-path="url(#pe41e23144b)" style="fill: #1f77b4; fill-opacity: 0.75; stroke: #000000; stroke-width: 0.118523; stroke-linejoin: miter"/>
   </g>
   <g id="patch_28">
    <path d="M 91.687137 330.1355 
L 92.807005 330.1355 
L 92.807005 330.1355 
L 91.687137 330.1355 
z
" clip-path="url(#pe41e23144b)" style="fill: #1f77b4; fill-opacity: 0.75; stroke: #000000; stroke-width: 0.118523; stroke-linejoin: miter"/>
   </g>
   <g id="patch_29">
    <path d="M 92.807005 330.1355 
L 93.926873 330.1355 
L 93.926873 328.997751 
L 92.807005 328.997751 
z
" clip-path="url(#pe41e23144b)" style="fill: #1f77b4; fill-opacity: 0.75; stroke: #000000; stroke-width: 0.118523; stroke-linejoin: miter"/>
   </g>
   <g id="patch_30">
    <path d="M 93.926873 330.1355 
L 95.046741 330.1355 
L 95.046741 328.735194 
L 93.926873 328.735194 
z
" clip-path="url(#pe41e23144b)" style="fill: #1f77b4; fill-opacity: 0.75; stroke: #000000; stroke-width: 0.118523; stroke-linejoin: miter"/>
   </g>
   <g id="patch_31">
    <path d="M 95.046741 330.1355 
L 96.166609 330.1355 
L 96.166609 329.435347 
L 95.046741 329.435347 
z
" clip-path="url(#pe41e23144b)" style="fill: #1f77b4; fill-opacity: 0.75; stroke: #000000; stroke-width: 0.118523; stroke-linejoin: miter"/>
   </g>
   <g id="patch_32">
    <path d="M 96.166609 330.1355 
L 97.286477 330.1355 
L 97.286477 329.260308 
L 96.166609 329.260308 
z
" clip-path="url(#pe41e23144b)" style="fill: #1f77b4; fill-opacity: 0.75; stroke: #000000; stroke-width: 0.118523; stroke-linejoin: miter"/>
   </g>
   <g id="patch_33">
    <path d="M 97.286477 330.1355 
L 98.406345 330.1355 
L 98.406345 329.08527 
L 97.286477 329.08527 
z
" clip-path="url(#pe41e23144b)" style="fill: #1f77b4; fill-opacity: 0.75; stroke: #000000; stroke-width: 0.118523; stroke-linejoin: miter"/>
   </g>
   <g id="patch_34">
    <path d="M 98.406345 330.1355 
L 99.526213 330.1355 
L 99.526213 328.910232 
L 98.406345 328.910232 
z
" clip-path="url(#pe41e23144b)" style="fill: #1f77b4; fill-opacity: 0.75; stroke: #000000; stroke-width: 0.118523; stroke-linejoin: miter"/>
   </g>
   <g id="patch_35">
    <path d="M 99.526213 330.1355 
L 100.646081 330.1355 
L 100.646081 329.08527 
L 99.526213 329.08527 
z
" clip-path="url(#pe41e23144b)" style="fill: #1f77b4; fill-opacity: 0.75; stroke: #000000; stroke-width: 0.118523; stroke-linejoin: miter"/>
   </g>
   <g id="patch_36">
    <path d="M 100.646081 330.1355 
L 101.765949 330.1355 
L 101.765949 326.809772 
L 100.646081 326.809772 
z
" clip-path="url(#pe41e23144b)" style="fill: #1f77b4; fill-opacity: 0.75; stroke: #000000; stroke-width: 0.118523; stroke-linejoin: miter"/>
   </g>
   <g id="patch_37">
    <path d="M 101.765949 330.1355 
L 102.885817 330.1355 
L 102.885817 328.910232 
L 101.765949 328.910232 
z
" clip-path="url(#pe41e23144b)" style="fill: #1f77b4; fill-opacity: 0.75; stroke: #000000; stroke-width: 0.118523; stroke-linejoin: miter"/>
   </g>
   <g id="patch_38">
    <path d="M 102.885817 330.1355 
L 104.005685 330.1355 
L 104.005685 327.597445 
L 102.885817 327.597445 
z
" clip-path="url(#pe41e23144b)" style="fill: #1f77b4; fill-opacity: 0.75; stroke: #000000; stroke-width: 0.118523; stroke-linejoin: miter"/>
   </g>
   <g id="patch_39">
    <path d="M 104.005685 330.1355 
L 105.125553 330.1355 
L 105.125553 328.297598 
L 104.005685 328.297598 
z
" clip-path="url(#pe41e23144b)" style="fill: #1f77b4; fill-opacity: 0.75; stroke: #000000; stroke-width: 0.118523; stroke-linejoin: miter"/>
   </g>
   <g id="patch_40">
    <path d="M 105.125553 330.1355 
L 106.245421 330.1355 
L 106.245421 327.334887 
L 105.125553 327.334887 
z
" clip-path="url(#pe41e23144b)" style="fill: #1f77b4; fill-opacity: 0.75; stroke: #000000; stroke-width: 0.118523; stroke-linejoin: miter"/>
   </g>
   <g id="patch_41">
    <path d="M 106.245421 330.1355 
L 107.365289 330.1355 
L 107.365289 327.422406 
L 106.245421 327.422406 
z
" clip-path="url(#pe41e23144b)" style="fill: #1f77b4; fill-opacity: 0.75; stroke: #000000; stroke-width: 0.118523; stroke-linejoin: miter"/>
   </g>
   <g id="patch_42">
    <path d="M 107.365289 330.1355 
L 108.485157 330.1355 
L 108.485157 324.709313 
L 107.365289 324.709313 
z
" clip-path="url(#pe41e23144b)" style="fill: #1f77b4; fill-opacity: 0.75; stroke: #000000; stroke-width: 0.118523; stroke-linejoin: miter"/>
   </g>
   <g id="patch_43">
    <path d="M 108.485157 330.1355 
L 109.605025 330.1355 
L 109.605025 327.247368 
L 108.485157 327.247368 
z
" clip-path="url(#pe41e23144b)" style="fill: #1f77b4; fill-opacity: 0.75; stroke: #000000; stroke-width: 0.118523; stroke-linejoin: miter"/>
   </g>
   <g id="patch_44">
    <path d="M 109.605025 330.1355 
L 110.724893 330.1355 
L 110.724893 324.884351 
L 109.605025 324.884351 
z
" clip-path="url(#pe41e23144b)" style="fill: #1f77b4; fill-opacity: 0.75; stroke: #000000; stroke-width: 0.118523; stroke-linejoin: miter"/>
   </g>
   <g id="patch_45">
    <path d="M 110.724893 330.1355 
L 111.844761 330.1355 
L 111.844761 324.446755 
L 110.724893 324.446755 
z
" clip-path="url(#pe41e23144b)" style="fill: #1f77b4; fill-opacity: 0.75; stroke: #000000; stroke-width: 0.118523; stroke-linejoin: miter"/>
   </g>
   <g id="patch_46">
    <path d="M 111.844761 330.1355 
L 112.964629 330.1355 
L 112.964629 324.621794 
L 111.844761 324.621794 
z
" clip-path="url(#pe41e23144b)" style="fill: #1f77b4; fill-opacity: 0.75; stroke: #000000; stroke-width: 0.118523; stroke-linejoin: miter"/>
   </g>
   <g id="patch_47">
    <path d="M 112.964629 330.1355 
L 114.084497 330.1355 
L 114.084497 324.271717 
L 112.964629 324.271717 
z
" clip-path="url(#pe41e23144b)" style="fill: #1f77b4; fill-opacity: 0.75; stroke: #000000; stroke-width: 0.118523; stroke-linejoin: miter"/>
   </g>
   <g id="patch_48">
    <path d="M 114.084497 330.1355 
L 115.204365 330.1355 
L 115.204365 322.783891 
L 114.084497 322.783891 
z
" clip-path="url(#pe41e23144b)" style="fill: #1f77b4; fill-opacity: 0.75; stroke: #000000; stroke-width: 0.118523; stroke-linejoin: miter"/>
   </g>
   <g id="patch_49">
    <path d="M 115.204365 330.1355 
L 116.324233 330.1355 
L 116.324233 322.433815 
L 115.204365 322.433815 
z
" clip-path="url(#pe41e23144b)" style="fill: #1f77b4; fill-opacity: 0.75; stroke: #000000; stroke-width: 0.118523; stroke-linejoin: miter"/>
   </g>
   <g id="patch_50">
    <path d="M 116.324233 330.1355 
L 117.444102 330.1355 
L 117.444102 321.9087 
L 116.324233 321.9087 
z
" clip-path="url(#pe41e23144b)" style="fill: #1f77b4; fill-opacity: 0.75; stroke: #000000; stroke-width: 0.118523; stroke-linejoin: miter"/>
   </g>
   <g id="patch_51">
    <path d="M 117.444102 330.1355 
L 118.56397 330.1355 
L 118.56397 318.933049 
L 117.444102 318.933049 
z
" clip-path="url(#pe41e23144b)" style="fill: #1f77b4; fill-opacity: 0.75; stroke: #000000; stroke-width: 0.118523; stroke-linejoin: miter"/>
   </g>
   <g id="patch_52">
    <path d="M 118.56397 330.1355 
L 119.683838 330.1355 
L 119.683838 319.195606 
L 118.56397 319.195606 
z
" clip-path="url(#pe41e23144b)" style="fill: #1f77b4; fill-opacity: 0.75; stroke: #000000; stroke-width: 0.118523; stroke-linejoin: miter"/>
   </g>
   <g id="patch_53">
    <path d="M 119.683838 330.1355 
L 120.803706 330.1355 
L 120.803706 315.344764 
L 119.683838 315.344764 
z
" clip-path="url(#pe41e23144b)" style="fill: #1f77b4; fill-opacity: 0.75; stroke: #000000; stroke-width: 0.118523; stroke-linejoin: miter"/>
   </g>
   <g id="patch_54">
    <path d="M 120.803706 330.1355 
L 121.923574 330.1355 
L 121.923574 314.907168 
L 120.803706 314.907168 
z
" clip-path="url(#pe41e23144b)" style="fill: #1f77b4; fill-opacity: 0.75; stroke: #000000; stroke-width: 0.118523; stroke-linejoin: miter"/>
   </g>
   <g id="patch_55">
    <path d="M 121.923574 330.1355 
L 123.043442 330.1355 
L 123.043442 313.069266 
L 121.923574 313.069266 
z
" clip-path="url(#pe41e23144b)" style="fill: #1f77b4; fill-opacity: 0.75; stroke: #000000; stroke-width: 0.118523; stroke-linejoin: miter"/>
   </g>
   <g id="patch_56">
    <path d="M 123.043442 330.1355 
L 124.16331 330.1355 
L 124.16331 313.331823 
L 123.043442 313.331823 
z
" clip-path="url(#pe41e23144b)" style="fill: #1f77b4; fill-opacity: 0.75; stroke: #000000; stroke-width: 0.118523; stroke-linejoin: miter"/>
   </g>
   <g id="patch_57">
    <path d="M 124.16331 330.1355 
L 125.283178 330.1355 
L 125.283178 310.181134 
L 124.16331 310.181134 
z
" clip-path="url(#pe41e23144b)" style="fill: #1f77b4; fill-opacity: 0.75; stroke: #000000; stroke-width: 0.118523; stroke-linejoin: miter"/>
   </g>
   <g id="patch_58">
    <path d="M 125.283178 330.1355 
L 126.403046 330.1355 
L 126.403046 310.618729 
L 125.283178 310.618729 
z
" clip-path="url(#pe41e23144b)" style="fill: #1f77b4; fill-opacity: 0.75; stroke: #000000; stroke-width: 0.118523; stroke-linejoin: miter"/>
   </g>
   <g id="patch_59">
    <path d="M 126.403046 330.1355 
L 127.522914 330.1355 
L 127.522914 305.280061 
L 126.403046 305.280061 
z
" clip-path="url(#pe41e23144b)" style="fill: #1f77b4; fill-opacity: 0.75; stroke: #000000; stroke-width: 0.118523; stroke-linejoin: miter"/>
   </g>
   <g id="patch_60">
    <path d="M 127.522914 330.1355 
L 128.642782 330.1355 
L 128.642782 305.192542 
L 127.522914 305.192542 
z
" clip-path="url(#pe41e23144b)" style="fill: #1f77b4; fill-opacity: 0.75; stroke: #000000; stroke-width: 0.118523; stroke-linejoin: miter"/>
   </g>
   <g id="patch_61">
    <path d="M 128.642782 330.1355 
L 129.76265 330.1355 
L 129.76265 300.203951 
L 128.642782 300.203951 
z
" clip-path="url(#pe41e23144b)" style="fill: #1f77b4; fill-opacity: 0.75; stroke: #000000; stroke-width: 0.118523; stroke-linejoin: miter"/>
   </g>
   <g id="patch_62">
    <path d="M 129.76265 330.1355 
L 130.882518 330.1355 
L 130.882518 296.09055 
L 129.76265 296.09055 
z
" clip-path="url(#pe41e23144b)" style="fill: #1f77b4; fill-opacity: 0.75; stroke: #000000; stroke-width: 0.118523; stroke-linejoin: miter"/>
   </g>
   <g id="patch_63">
    <path d="M 130.882518 330.1355 
L 132.002386 330.1355 
L 132.002386 293.377457 
L 130.882518 293.377457 
z
" clip-path="url(#pe41e23144b)" style="fill: #1f77b4; fill-opacity: 0.75; stroke: #000000; stroke-width: 0.118523; stroke-linejoin: miter"/>
   </g>
   <g id="patch_64">
    <path d="M 132.002386 330.1355 
L 133.122254 330.1355 
L 133.122254 290.576844 
L 132.002386 290.576844 
z
" clip-path="url(#pe41e23144b)" style="fill: #1f77b4; fill-opacity: 0.75; stroke: #000000; stroke-width: 0.118523; stroke-linejoin: miter"/>
   </g>
   <g id="patch_65">
    <path d="M 133.122254 330.1355 
L 134.242122 330.1355 
L 134.242122 287.163597 
L 133.122254 287.163597 
z
" clip-path="url(#pe41e23144b)" style="fill: #1f77b4; fill-opacity: 0.75; stroke: #000000; stroke-width: 0.118523; stroke-linejoin: miter"/>
   </g>
   <g id="patch_66">
    <path d="M 134.242122 330.1355 
L 135.36199 330.1355 
L 135.36199 280.162065 
L 134.242122 280.162065 
z
" clip-path="url(#pe41e23144b)" style="fill: #1f77b4; fill-opacity: 0.75; stroke: #000000; stroke-width: 0.118523; stroke-linejoin: miter"/>
   </g>
   <g id="patch_67">
    <path d="M 135.36199 330.1355 
L 136.481858 330.1355 
L 136.481858 277.361452 
L 135.36199 277.361452 
z
" clip-path="url(#pe41e23144b)" style="fill: #1f77b4; fill-opacity: 0.75; stroke: #000000; stroke-width: 0.118523; stroke-linejoin: miter"/>
   </g>
   <g id="patch_68">
    <path d="M 136.481858 330.1355 
L 137.601726 330.1355 
L 137.601726 272.547899 
L 136.481858 272.547899 
z
" clip-path="url(#pe41e23144b)" style="fill: #1f77b4; fill-opacity: 0.75; stroke: #000000; stroke-width: 0.118523; stroke-linejoin: miter"/>
   </g>
   <g id="patch_69">
    <path d="M 137.601726 330.1355 
L 138.721594 330.1355 
L 138.721594 264.496137 
L 137.601726 264.496137 
z
" clip-path="url(#pe41e23144b)" style="fill: #1f77b4; fill-opacity: 0.75; stroke: #000000; stroke-width: 0.118523; stroke-linejoin: miter"/>
   </g>
   <g id="patch_70">
    <path d="M 138.721594 330.1355 
L 139.841462 330.1355 
L 139.841462 260.470256 
L 138.721594 260.470256 
z
" clip-path="url(#pe41e23144b)" style="fill: #1f77b4; fill-opacity: 0.75; stroke: #000000; stroke-width: 0.118523; stroke-linejoin: miter"/>
   </g>
   <g id="patch_71">
    <path d="M 139.841462 330.1355 
L 140.96133 330.1355 
L 140.96133 250.055477 
L 139.841462 250.055477 
z
" clip-path="url(#pe41e23144b)" style="fill: #1f77b4; fill-opacity: 0.75; stroke: #000000; stroke-width: 0.118523; stroke-linejoin: miter"/>
   </g>
   <g id="patch_72">
    <path d="M 140.96133 330.1355 
L 142.081198 330.1355 
L 142.081198 249.79292 
L 140.96133 249.79292 
z
" clip-path="url(#pe41e23144b)" style="fill: #1f77b4; fill-opacity: 0.75; stroke: #000000; stroke-width: 0.118523; stroke-linejoin: miter"/>
   </g>
   <g id="patch_73">
    <path d="M 142.081198 330.1355 
L 143.201066 330.1355 
L 143.201066 233.689396 
L 142.081198 233.689396 
z
" clip-path="url(#pe41e23144b)" style="fill: #1f77b4; fill-opacity: 0.75; stroke: #000000; stroke-width: 0.118523; stroke-linejoin: miter"/>
   </g>
   <g id="patch_74">
    <path d="M 143.201066 330.1355 
L 144.320934 330.1355 
L 144.320934 231.063822 
L 143.201066 231.063822 
z
" clip-path="url(#pe41e23144b)" style="fill: #1f77b4; fill-opacity: 0.75; stroke: #000000; stroke-width: 0.118523; stroke-linejoin: miter"/>
   </g>
   <g id="patch_75">
    <path d="M 144.320934 330.1355 
L 145.440802 330.1355 
L 145.440802 221.436715 
L 144.320934 221.436715 
z
" clip-path="url(#pe41e23144b)" style="fill: #1f77b4; fill-opacity: 0.75; stroke: #000000; stroke-width: 0.118523; stroke-linejoin: miter"/>
   </g>
   <g id="patch_76">
    <path d="M 145.440802 330.1355 
L 146.56067 330.1355 
L 146.56067 211.72209 
L 145.440802 211.72209 
z
" clip-path="url(#pe41e23144b)" style="fill: #1f77b4; fill-opacity: 0.75; stroke: #000000; stroke-width: 0.118523; stroke-linejoin: miter"/>
   </g>
   <g id="patch_77">
    <path d="M 146.56067 330.1355 
L 147.680538 330.1355 
L 147.680538 209.534111 
L 146.56067 209.534111 
z
" clip-path="url(#pe41e23144b)" style="fill: #1f77b4; fill-opacity: 0.75; stroke: #000000; stroke-width: 0.118523; stroke-linejoin: miter"/>
   </g>
   <g id="patch_78">
    <path d="M 147.680538 330.1355 
L 148.800406 330.1355 
L 148.800406 197.28143 
L 147.680538 197.28143 
z
" clip-path="url(#pe41e23144b)" style="fill: #1f77b4; fill-opacity: 0.75; stroke: #000000; stroke-width: 0.118523; stroke-linejoin: miter"/>
   </g>
   <g id="patch_79">
    <path d="M 148.800406 330.1355 
L 149.920274 330.1355 
L 149.920274 191.330127 
L 148.800406 191.330127 
z
" clip-path="url(#pe41e23144b)" style="fill: #1f77b4; fill-opacity: 0.75; stroke: #000000; stroke-width: 0.118523; stroke-linejoin: miter"/>
   </g>
   <g id="patch_80">
    <path d="M 149.920274 330.1355 
L 151.040142 330.1355 
L 151.040142 182.753251 
L 149.920274 182.753251 
z
" clip-path="url(#pe41e23144b)" style="fill: #1f77b4; fill-opacity: 0.75; stroke: #000000; stroke-width: 0.118523; stroke-linejoin: miter"/>
   </g>
   <g id="patch_81">
    <path d="M 151.040142 330.1355 
L 152.16001 330.1355 
L 152.16001 176.451872 
L 151.040142 176.451872 
z
" clip-path="url(#pe41e23144b)" style="fill: #1f77b4; fill-opacity: 0.75; stroke: #000000; stroke-width: 0.118523; stroke-linejoin: miter"/>
   </g>
   <g id="patch_82">
    <path d="M 152.16001 330.1355 
L 153.279878 330.1355 
L 153.279878 155.972391 
L 152.16001 155.972391 
z
" clip-path="url(#pe41e23144b)" style="fill: #1f77b4; fill-opacity: 0.75; stroke: #000000; stroke-width: 0.118523; stroke-linejoin: miter"/>
   </g>
   <g id="patch_83">
    <path d="M 153.279878 330.1355 
L 154.399746 330.1355 
L 154.399746 145.995208 
L 153.279878 145.995208 
z
" clip-path="url(#pe41e23144b)" style="fill: #1f77b4; fill-opacity: 0.75; stroke: #000000; stroke-width: 0.118523; stroke-linejoin: miter"/>
   </g>
   <g id="patch_84">
    <path d="M 154.399746 330.1355 
L 155.519615 330.1355 
L 155.519615 131.904624 
L 154.399746 131.904624 
z
" clip-path="url(#pe41e23144b)" style="fill: #1f77b4; fill-opacity: 0.75; stroke: #000000; stroke-width: 0.118523; stroke-linejoin: miter"/>
   </g>
   <g id="patch_85">
    <path d="M 155.519615 330.1355 
L 156.639483 330.1355 
L 156.639483 123.152709 
L 155.519615 123.152709 
z
" clip-path="url(#pe41e23144b)" style="fill: #1f77b4; fill-opacity: 0.75; stroke: #000000; stroke-width: 0.118523; stroke-linejoin: miter"/>
   </g>
   <g id="patch_86">
    <path d="M 156.639483 330.1355 
L 157.759351 330.1355 
L 157.759351 120.177058 
L 156.639483 120.177058 
z
" clip-path="url(#pe41e23144b)" style="fill: #1f77b4; fill-opacity: 0.75; stroke: #000000; stroke-width: 0.118523; stroke-linejoin: miter"/>
   </g>
   <g id="patch_87">
    <path d="M 157.759351 330.1355 
L 158.879219 330.1355 
L 158.879219 114.575833 
L 157.759351 114.575833 
z
" clip-path="url(#pe41e23144b)" style="fill: #1f77b4; fill-opacity: 0.75; stroke: #000000; stroke-width: 0.118523; stroke-linejoin: miter"/>
   </g>
   <g id="patch_88">
    <path d="M 158.879219 330.1355 
L 159.999087 330.1355 
L 159.999087 100.135173 
L 158.879219 100.135173 
z
" clip-path="url(#pe41e23144b)" style="fill: #1f77b4; fill-opacity: 0.75; stroke: #000000; stroke-width: 0.118523; stroke-linejoin: miter"/>
   </g>
   <g id="patch_89">
    <path d="M 159.999087 330.1355 
L 161.118955 330.1355 
L 161.118955 82.281266 
L 159.999087 82.281266 
z
" clip-path="url(#pe41e23144b)" style="fill: #1f77b4; fill-opacity: 0.75; stroke: #000000; stroke-width: 0.118523; stroke-linejoin: miter"/>
   </g>
   <g id="patch_90">
    <path d="M 161.118955 330.1355 
L 162.238823 330.1355 
L 162.238823 83.243977 
L 161.118955 83.243977 
z
" clip-path="url(#pe41e23144b)" style="fill: #1f77b4; fill-opacity: 0.75; stroke: #000000; stroke-width: 0.118523; stroke-linejoin: miter"/>
   </g>
   <g id="patch_91">
    <path d="M 162.238823 330.1355 
L 163.358691 330.1355 
L 163.358691 65.565108 
L 162.238823 65.565108 
z
" clip-path="url(#pe41e23144b)" style="fill: #1f77b4; fill-opacity: 0.75; stroke: #000000; stroke-width: 0.118523; stroke-linejoin: miter"/>
   </g>
   <g id="patch_92">
    <path d="M 163.358691 330.1355 
L 164.478559 330.1355 
L 164.478559 58.563576 
L 163.358691 58.563576 
z
" clip-path="url(#pe41e23144b)" style="fill: #1f77b4; fill-opacity: 0.75; stroke: #000000; stroke-width: 0.118523; stroke-linejoin: miter"/>
   </g>
   <g id="patch_93">
    <path d="M 164.478559 330.1355 
L 165.598427 330.1355 
L 165.598427 55.938002 
L 164.478559 55.938002 
z
" clip-path="url(#pe41e23144b)" style="fill: #1f77b4; fill-opacity: 0.75; stroke: #000000; stroke-width: 0.118523; stroke-linejoin: miter"/>
   </g>
   <g id="patch_94">
    <path d="M 165.598427 330.1355 
L 166.718295 330.1355 
L 166.718295 40.62215 
L 165.598427 40.62215 
z
" clip-path="url(#pe41e23144b)" style="fill: #1f77b4; fill-opacity: 0.75; stroke: #000000; stroke-width: 0.118523; stroke-linejoin: miter"/>
   </g>
   <g id="patch_95">
    <path d="M 166.718295 330.1355 
L 167.838163 330.1355 
L 167.838163 27.756835 
L 166.718295 27.756835 
z
" clip-path="url(#pe41e23144b)" style="fill: #1f77b4; fill-opacity: 0.75; stroke: #000000; stroke-width: 0.118523; stroke-linejoin: miter"/>
   </g>
   <g id="patch_96">
    <path d="M 167.838163 330.1355 
L 168.958031 330.1355 
L 168.958031 26.006452 
L 167.838163 26.006452 
z
" clip-path="url(#pe41e23144b)" style="fill: #1f77b4; fill-opacity: 0.75; stroke: #000000; stroke-width: 0.118523; stroke-linejoin: miter"/>
   </g>
   <g id="patch_97">
    <path d="M 168.958031 330.1355 
L 170.077899 330.1355 
L 170.077899 30.38241 
L 168.958031 30.38241 
z
" clip-path="url(#pe41e23144b)" style="fill: #1f77b4; fill-opacity: 0.75; stroke: #000000; stroke-width: 0.118523; stroke-linejoin: miter"/>
   </g>
   <g id="patch_98">
    <path d="M 170.077899 330.1355 
L 171.197767 330.1355 
L 171.197767 31.257601 
L 170.077899 31.257601 
z
" clip-path="url(#pe41e23144b)" style="fill: #1f77b4; fill-opacity: 0.75; stroke: #000000; stroke-width: 0.118523; stroke-linejoin: miter"/>
   </g>
   <g id="patch_99">
    <path d="M 171.197767 330.1355 
L 172.317635 330.1355 
L 172.317635 30.032333 
L 171.197767 30.032333 
z
" clip-path="url(#pe41e23144b)" style="fill: #1f77b4; fill-opacity: 0.75; stroke: #000000; stroke-width: 0.118523; stroke-linejoin: miter"/>
   </g>
   <g id="patch_100">
    <path d="M 172.317635 330.1355 
L 173.437503 330.1355 
L 173.437503 32.132793 
L 172.317635 32.132793 
z
" clip-path="url(#pe41e23144b)" style="fill: #1f77b4; fill-opacity: 0.75; stroke: #000000; stroke-width: 0.118523; stroke-linejoin: miter"/>
   </g>
   <g id="patch_101">
    <path d="M 173.437503 330.1355 
L 174.557371 330.1355 
L 174.557371 34.670848 
L 173.437503 34.670848 
z
" clip-path="url(#pe41e23144b)" style="fill: #1f77b4; fill-opacity: 0.75; stroke: #000000; stroke-width: 0.118523; stroke-linejoin: miter"/>
   </g>
   <g id="patch_102">
    <path d="M 174.557371 330.1355 
L 175.677239 330.1355 
L 175.677239 45.085627 
L 174.557371 45.085627 
z
" clip-path="url(#pe41e23144b)" style="fill: #1f77b4; fill-opacity: 0.75; stroke: #000000; stroke-width: 0.118523; stroke-linejoin: miter"/>
   </g>
   <g id="patch_103">
    <path d="M 175.677239 330.1355 
L 176.797107 330.1355 
L 176.797107 35.808597 
L 175.677239 35.808597 
z
" clip-path="url(#pe41e23144b)" style="fill: #1f77b4; fill-opacity: 0.75; stroke: #000000; stroke-width: 0.118523; stroke-linejoin: miter"/>
   </g>
   <g id="patch_104">
    <path d="M 176.797107 330.1355 
L 177.916975 330.1355 
L 177.916975 47.88624 
L 176.797107 47.88624 
z
" clip-path="url(#pe41e23144b)" style="fill: #1f77b4; fill-opacity: 0.75; stroke: #000000; stroke-width: 0.118523; stroke-linejoin: miter"/>
   </g>
   <g id="patch_105">
    <path d="M 177.916975 330.1355 
L 179.036843 330.1355 
L 179.036843 53.925061 
L 177.916975 53.925061 
z
" clip-path="url(#pe41e23144b)" style="fill: #1f77b4; fill-opacity: 0.75; stroke: #000000; stroke-width: 0.118523; stroke-linejoin: miter"/>
   </g>
   <g id="patch_106">
    <path d="M 179.036843 330.1355 
L 180.156711 330.1355 
L 180.156711 51.99964 
L 179.036843 51.99964 
z
" clip-path="url(#pe41e23144b)" style="fill: #1f77b4; fill-opacity: 0.75; stroke: #000000; stroke-width: 0.118523; stroke-linejoin: miter"/>
   </g>
   <g id="patch_107">
    <path d="M 180.156711 330.1355 
L 181.276579 330.1355 
L 181.276579 65.215032 
L 180.156711 65.215032 
z
" clip-path="url(#pe41e23144b)" style="fill: #1f77b4; fill-opacity: 0.75; stroke: #000000; stroke-width: 0.118523; stroke-linejoin: miter"/>
   </g>
   <g id="patch_108">
    <path d="M 181.276579 330.1355 
L 182.396447 330.1355 
L 182.396447 70.028585 
L 181.276579 70.028585 
z
" clip-path="url(#pe41e23144b)" style="fill: #1f77b4; fill-opacity: 0.75; stroke: #000000; stroke-width: 0.118523; stroke-linejoin: miter"/>
   </g>
   <g id="patch_109">
    <path d="M 182.396447 330.1355 
L 183.516315 330.1355 
L 183.516315 71.866487 
L 182.396447 71.866487 
z
" clip-path="url(#pe41e23144b)" style="fill: #1f77b4; fill-opacity: 0.75; stroke: #000000; stroke-width: 0.118523; stroke-linejoin: miter"/>
   </g>
   <g id="patch_110">
    <path d="M 183.516315 330.1355 
L 184.636183 330.1355 
L 184.636183 77.205155 
L 183.516315 77.205155 
z
" clip-path="url(#pe41e23144b)" style="fill: #1f77b4; fill-opacity: 0.75; stroke: #000000; stroke-width: 0.118523; stroke-linejoin: miter"/>
   </g>
   <g id="patch_111">
    <path d="M 184.636183 330.1355 
L 185.756051 330.1355 
L 185.756051 86.482185 
L 184.636183 86.482185 
z
" clip-path="url(#pe41e23144b)" style="fill: #1f77b4; fill-opacity: 0.75; stroke: #000000; stroke-width: 0.118523; stroke-linejoin: miter"/>
   </g>
   <g id="patch_112">
    <path d="M 185.756051 330.1355 
L 186.875919 330.1355 
L 186.875919 96.984483 
L 185.756051 96.984483 
z
" clip-path="url(#pe41e23144b)" style="fill: #1f77b4; fill-opacity: 0.75; stroke: #000000; stroke-width: 0.118523; stroke-linejoin: miter"/>
   </g>
   <g id="patch_113">
    <path d="M 186.875919 330.1355 
L 187.995787 330.1355 
L 187.995787 108.011896 
L 186.875919 108.011896 
z
" clip-path="url(#pe41e23144b)" style="fill: #1f77b4; fill-opacity: 0.75; stroke: #000000; stroke-width: 0.118523; stroke-linejoin: miter"/>
   </g>
   <g id="patch_114">
    <path d="M 187.995787 330.1355 
L 189.115655 330.1355 
L 189.115655 116.238696 
L 187.995787 116.238696 
z
" clip-path="url(#pe41e23144b)" style="fill: #1f77b4; fill-opacity: 0.75; stroke: #000000; stroke-width: 0.118523; stroke-linejoin: miter"/>
   </g>
   <g id="patch_115">
    <path d="M 189.115655 330.1355 
L 190.235523 330.1355 
L 190.235523 113.875679 
L 189.115655 113.875679 
z
" clip-path="url(#pe41e23144b)" style="fill: #1f77b4; fill-opacity: 0.75; stroke: #000000; stroke-width: 0.118523; stroke-linejoin: miter"/>
   </g>
   <g id="patch_116">
    <path d="M 190.235523 330.1355 
L 191.355391 330.1355 
L 191.355391 134.092603 
L 190.235523 134.092603 
z
" clip-path="url(#pe41e23144b)" style="fill: #1f77b4; fill-opacity: 0.75; stroke: #000000; stroke-width: 0.118523; stroke-linejoin: miter"/>
   </g>
   <g id="patch_117">
    <path d="M 191.355391 330.1355 
L 192.475259 330.1355 
L 192.475259 132.779816 
L 191.355391 132.779816 
z
" clip-path="url(#pe41e23144b)" style="fill: #1f77b4; fill-opacity: 0.75; stroke: #000000; stroke-width: 0.118523; stroke-linejoin: miter"/>
   </g>
   <g id="patch_118">
    <path d="M 192.475259 330.1355 
L 193.595127 330.1355 
L 193.595127 142.756999 
L 192.475259 142.756999 
z
" clip-path="url(#pe41e23144b)" style="fill: #1f77b4; fill-opacity: 0.75; stroke: #000000; stroke-width: 0.118523; stroke-linejoin: miter"/>
   </g>
   <g id="patch_119">
    <path d="M 193.595127 330.1355 
L 194.714996 330.1355 
L 194.714996 160.698425 
L 193.595127 160.698425 
z
" clip-path="url(#pe41e23144b)" style="fill: #1f77b4; fill-opacity: 0.75; stroke: #000000; stroke-width: 0.118523; stroke-linejoin: miter"/>
   </g>
   <g id="patch_120">
    <path d="M 194.714996 330.1355 
L 195.834864 330.1355 
L 195.834864 165.33694 
L 194.714996 165.33694 
z
" clip-path="url(#pe41e23144b)" style="fill: #1f77b4; fill-opacity: 0.75; stroke: #000000; stroke-width: 0.118523; stroke-linejoin: miter"/>
   </g>
   <g id="patch_121">
    <path d="M 195.834864 330.1355 
L 196.954732 330.1355 
L 196.954732 176.801949 
L 195.834864 176.801949 
z
" clip-path="url(#pe41e23144b)" style="fill: #1f77b4; fill-opacity: 0.75; stroke: #000000; stroke-width: 0.118523; stroke-linejoin: miter"/>
   </g>
   <g id="patch_122">
    <path d="M 196.954732 330.1355 
L 198.0746 330.1355 
L 198.0746 176.014276 
L 196.954732 176.014276 
z
" clip-path="url(#pe41e23144b)" style="fill: #1f77b4; fill-opacity: 0.75; stroke: #000000; stroke-width: 0.118523; stroke-linejoin: miter"/>
   </g>
   <g id="patch_123">
    <path d="M 198.0746 330.1355 
L 199.194468 330.1355 
L 199.194468 189.229668 
L 198.0746 189.229668 
z
" clip-path="url(#pe41e23144b)" style="fill: #1f77b4; fill-opacity: 0.75; stroke: #000000; stroke-width: 0.118523; stroke-linejoin: miter"/>
   </g>
   <g id="patch_124">
    <path d="M 199.194468 330.1355 
L 200.314336 330.1355 
L 200.314336 191.855242 
L 199.194468 191.855242 
z
" clip-path="url(#pe41e23144b)" style="fill: #1f77b4; fill-opacity: 0.75; stroke: #000000; stroke-width: 0.118523; stroke-linejoin: miter"/>
   </g>
   <g id="patch_125">
    <path d="M 200.314336 330.1355 
L 201.434204 330.1355 
L 201.434204 197.631506 
L 200.314336 197.631506 
z
" clip-path="url(#pe41e23144b)" style="fill: #1f77b4; fill-opacity: 0.75; stroke: #000000; stroke-width: 0.118523; stroke-linejoin: miter"/>
   </g>
   <g id="patch_126">
    <path d="M 201.434204 330.1355 
L 202.554072 330.1355 
L 202.554072 206.645979 
L 201.434204 206.645979 
z
" clip-path="url(#pe41e23144b)" style="fill: #1f77b4; fill-opacity: 0.75; stroke: #000000; stroke-width: 0.118523; stroke-linejoin: miter"/>
   </g>
   <g id="patch_127">
    <path d="M 202.554072 330.1355 
L 203.67394 330.1355 
L 203.67394 218.198507 
L 202.554072 218.198507 
z
" clip-path="url(#pe41e23144b)" style="fill: #1f77b4; fill-opacity: 0.75; stroke: #000000; stroke-width: 0.118523; stroke-linejoin: miter"/>
   </g>
   <g id="patch_128">
    <path d="M 203.67394 330.1355 
L 204.793808 330.1355 
L 204.793808 218.986179 
L 203.67394 218.986179 
z
" clip-path="url(#pe41e23144b)" style="fill: #1f77b4; fill-opacity: 0.75; stroke: #000000; stroke-width: 0.118523; stroke-linejoin: miter"/>
   </g>
   <g id="patch_129">
    <path d="M 204.793808 330.1355 
L 205.913676 330.1355 
L 205.913676 224.587405 
L 204.793808 224.587405 
z
" clip-path="url(#pe41e23144b)" style="fill: #1f77b4; fill-opacity: 0.75; stroke: #000000; stroke-width: 0.118523; stroke-linejoin: miter"/>
   </g>
   <g id="patch_130">
    <path d="M 205.913676 330.1355 
L 207.033544 330.1355 
L 207.033544 230.451188 
L 205.913676 230.451188 
z
" clip-path="url(#pe41e23144b)" style="fill: #1f77b4; fill-opacity: 0.75; stroke: #000000; stroke-width: 0.118523; stroke-linejoin: miter"/>
   </g>
   <g id="patch_131">
    <path d="M 207.033544 330.1355 
L 208.153412 330.1355 
L 208.153412 237.190162 
L 207.033544 237.190162 
z
" clip-path="url(#pe41e23144b)" style="fill: #1f77b4; fill-opacity: 0.75; stroke: #000000; stroke-width: 0.118523; stroke-linejoin: miter"/>
   </g>
   <g id="patch_132">
    <path d="M 208.153412 330.1355 
L 209.27328 330.1355 
L 209.27328 247.955018 
L 208.153412 247.955018 
z
" clip-path="url(#pe41e23144b)" style="fill: #1f77b4; fill-opacity: 0.75; stroke: #000000; stroke-width: 0.118523; stroke-linejoin: miter"/>
   </g>
   <g id="patch_133">
    <path d="M 209.27328 330.1355 
L 210.393148 330.1355 
L 210.393148 245.154405 
L 209.27328 245.154405 
z
" clip-path="url(#pe41e23144b)" style="fill: #1f77b4; fill-opacity: 0.75; stroke: #000000; stroke-width: 0.118523; stroke-linejoin: miter"/>
   </g>
   <g id="patch_134">
    <path d="M 210.393148 330.1355 
L 211.513016 330.1355 
L 211.513016 253.556243 
L 210.393148 253.556243 
z
" clip-path="url(#pe41e23144b)" style="fill: #1f77b4; fill-opacity: 0.75; stroke: #000000; stroke-width: 0.118523; stroke-linejoin: miter"/>
   </g>
   <g id="patch_135">
    <path d="M 211.513016 330.1355 
L 212.632884 330.1355 
L 212.632884 256.619414 
L 211.513016 256.619414 
z
" clip-path="url(#pe41e23144b)" style="fill: #1f77b4; fill-opacity: 0.75; stroke: #000000; stroke-width: 0.118523; stroke-linejoin: miter"/>
   </g>
   <g id="patch_136">
    <path d="M 212.632884 330.1355 
L 213.752752 330.1355 
L 213.752752 260.470256 
L 212.632884 260.470256 
z
" clip-path="url(#pe41e23144b)" style="fill: #1f77b4; fill-opacity: 0.75; stroke: #000000; stroke-width: 0.118523; stroke-linejoin: miter"/>
   </g>
   <g id="patch_137">
    <path d="M 213.752752 330.1355 
L 214.87262 330.1355 
L 214.87262 265.458848 
L 213.752752 265.458848 
z
" clip-path="url(#pe41e23144b)" style="fill: #1f77b4; fill-opacity: 0.75; stroke: #000000; stroke-width: 0.118523; stroke-linejoin: miter"/>
   </g>
   <g id="patch_138">
    <path d="M 214.87262 330.1355 
L 215.992488 330.1355 
L 215.992488 267.821865 
L 214.87262 267.821865 
z
" clip-path="url(#pe41e23144b)" style="fill: #1f77b4; fill-opacity: 0.75; stroke: #000000; stroke-width: 0.118523; stroke-linejoin: miter"/>
   </g>
   <g id="patch_139">
    <path d="M 215.992488 330.1355 
L 217.112356 330.1355 
L 217.112356 274.298282 
L 215.992488 274.298282 
z
" clip-path="url(#pe41e23144b)" style="fill: #1f77b4; fill-opacity: 0.75; stroke: #000000; stroke-width: 0.118523; stroke-linejoin: miter"/>
   </g>
   <g id="patch_140">
    <path d="M 217.112356 330.1355 
L 218.232224 330.1355 
L 218.232224 280.862218 
L 217.112356 280.862218 
z
" clip-path="url(#pe41e23144b)" style="fill: #1f77b4; fill-opacity: 0.75; stroke: #000000; stroke-width: 0.118523; stroke-linejoin: miter"/>
   </g>
   <g id="patch_141">
    <path d="M 218.232224 330.1355 
L 219.352092 330.1355 
L 219.352092 277.711529 
L 218.232224 277.711529 
z
" clip-path="url(#pe41e23144b)" style="fill: #1f77b4; fill-opacity: 0.75; stroke: #000000; stroke-width: 0.118523; stroke-linejoin: miter"/>
   </g>
   <g id="patch_142">
    <path d="M 219.352092 330.1355 
L 220.47196 330.1355 
L 220.47196 284.450503 
L 219.352092 284.450503 
z
" clip-path="url(#pe41e23144b)" style="fill: #1f77b4; fill-opacity: 0.75; stroke: #000000; stroke-width: 0.118523; stroke-linejoin: miter"/>
   </g>
   <g id="patch_143">
    <path d="M 220.47196 330.1355 
L 221.591828 330.1355 
L 221.591828 285.675772 
L 220.47196 285.675772 
z
" clip-path="url(#pe41e23144b)" style="fill: #1f77b4; fill-opacity: 0.75; stroke: #000000; stroke-width: 0.118523; stroke-linejoin: miter"/>
   </g>
   <g id="patch_144">
    <path d="M 221.591828 330.1355 
L 222.711696 330.1355 
L 222.711696 281.387333 
L 221.591828 281.387333 
z
" clip-path="url(#pe41e23144b)" style="fill: #1f77b4; fill-opacity: 0.75; stroke: #000000; stroke-width: 0.118523; stroke-linejoin: miter"/>
   </g>
   <g id="patch_145">
    <path d="M 222.711696 330.1355 
L 223.831564 330.1355 
L 223.831564 291.627074 
L 222.711696 291.627074 
z
" clip-path="url(#pe41e23144b)" style="fill: #1f77b4; fill-opacity: 0.75; stroke: #000000; stroke-width: 0.118523; stroke-linejoin: miter"/>
   </g>
   <g id="patch_146">
    <path d="M 223.831564 330.1355 
L 224.951432 330.1355 
L 224.951432 290.401806 
L 223.831564 290.401806 
z
" clip-path="url(#pe41e23144b)" style="fill: #1f77b4; fill-opacity: 0.75; stroke: #000000; stroke-width: 0.118523; stroke-linejoin: miter"/>
   </g>
   <g id="patch_147">
    <path d="M 224.951432 330.1355 
L 226.0713 330.1355 
L 226.0713 292.414746 
L 224.951432 292.414746 
z
" clip-path="url(#pe41e23144b)" style="fill: #1f77b4; fill-opacity: 0.75; stroke: #000000; stroke-width: 0.118523; stroke-linejoin: miter"/>
   </g>
   <g id="patch_148">
    <path d="M 226.0713 330.1355 
L 227.191168 330.1355 
L 227.191168 290.664363 
L 226.0713 290.664363 
z
" clip-path="url(#pe41e23144b)" style="fill: #1f77b4; fill-opacity: 0.75; stroke: #000000; stroke-width: 0.118523; stroke-linejoin: miter"/>
   </g>
   <g id="patch_149">
    <path d="M 227.191168 330.1355 
L 228.311036 330.1355 
L 228.311036 296.965742 
L 227.191168 296.965742 
z
" clip-path="url(#pe41e23144b)" style="fill: #1f77b4; fill-opacity: 0.75; stroke: #000000; stroke-width: 0.118523; stroke-linejoin: miter"/>
   </g>
   <g id="patch_150">
    <path d="M 228.311036 330.1355 
L 229.430904 330.1355 
L 229.430904 296.703185 
L 228.311036 296.703185 
z
" clip-path="url(#pe41e23144b)" style="fill: #1f77b4; fill-opacity: 0.75; stroke: #000000; stroke-width: 0.118523; stroke-linejoin: miter"/>
   </g>
   <g id="patch_151">
    <path d="M 229.430904 330.1355 
L 230.550772 330.1355 
L 230.550772 298.278529 
L 229.430904 298.278529 
z
" clip-path="url(#pe41e23144b)" style="fill: #1f77b4; fill-opacity: 0.75; stroke: #000000; stroke-width: 0.118523; stroke-linejoin: miter"/>
   </g>
   <g id="patch_152">
    <path d="M 230.550772 330.1355 
L 231.67064 330.1355 
L 231.67064 301.954334 
L 230.550772 301.954334 
z
" clip-path="url(#pe41e23144b)" style="fill: #1f77b4; fill-opacity: 0.75; stroke: #000000; stroke-width: 0.118523; stroke-linejoin: miter"/>
   </g>
   <g id="patch_153">
    <path d="M 231.67064 330.1355 
L 232.790508 330.1355 
L 232.790508 301.779295 
L 231.67064 301.779295 
z
" clip-path="url(#pe41e23144b)" style="fill: #1f77b4; fill-opacity: 0.75; stroke: #000000; stroke-width: 0.118523; stroke-linejoin: miter"/>
   </g>
   <g id="patch_154">
    <path d="M 232.790508 330.1355 
L 233.910377 330.1355 
L 233.910377 306.680368 
L 232.790508 306.680368 
z
" clip-path="url(#pe41e23144b)" style="fill: #1f77b4; fill-opacity: 0.75; stroke: #000000; stroke-width: 0.118523; stroke-linejoin: miter"/>
   </g>
   <g id="patch_155">
    <path d="M 233.910377 330.1355 
L 235.030245 330.1355 
L 235.030245 302.829525 
L 233.910377 302.829525 
z
" clip-path="url(#pe41e23144b)" style="fill: #1f77b4; fill-opacity: 0.75; stroke: #000000; stroke-width: 0.118523; stroke-linejoin: miter"/>
   </g>
   <g id="patch_156">
    <path d="M 235.030245 330.1355 
L 236.150113 330.1355 
L 236.150113 304.492389 
L 235.030245 304.492389 
z
" clip-path="url(#pe41e23144b)" style="fill: #1f77b4; fill-opacity: 0.75; stroke: #000000; stroke-width: 0.118523; stroke-linejoin: miter"/>
   </g>
   <g id="patch_157">
    <path d="M 236.150113 330.1355 
L 237.269981 330.1355 
L 237.269981 305.36758 
L 236.150113 305.36758 
z
" clip-path="url(#pe41e23144b)" style="fill: #1f77b4; fill-opacity: 0.75; stroke: #000000; stroke-width: 0.118523; stroke-linejoin: miter"/>
   </g>
   <g id="patch_158">
    <path d="M 237.269981 330.1355 
L 238.389849 330.1355 
L 238.389849 309.130904 
L 237.269981 309.130904 
z
" clip-path="url(#pe41e23144b)" style="fill: #1f77b4; fill-opacity: 0.75; stroke: #000000; stroke-width: 0.118523; stroke-linejoin: miter"/>
   </g>
   <g id="patch_159">
    <path d="M 238.389849 330.1355 
L 239.509717 330.1355 
L 239.509717 308.693308 
L 238.389849 308.693308 
z
" clip-path="url(#pe41e23144b)" style="fill: #1f77b4; fill-opacity: 0.75; stroke: #000000; stroke-width: 0.118523; stroke-linejoin: miter"/>
   </g>
   <g id="patch_160">
    <path d="M 239.509717 330.1355 
L 240.629585 330.1355 
L 240.629585 309.918576 
L 239.509717 309.918576 
z
" clip-path="url(#pe41e23144b)" style="fill: #1f77b4; fill-opacity: 0.75; stroke: #000000; stroke-width: 0.118523; stroke-linejoin: miter"/>
   </g>
   <g id="patch_161">
    <path d="M 240.629585 330.1355 
L 241.749453 330.1355 
L 241.749453 308.430751 
L 240.629585 308.430751 
z
" clip-path="url(#pe41e23144b)" style="fill: #1f77b4; fill-opacity: 0.75; stroke: #000000; stroke-width: 0.118523; stroke-linejoin: miter"/>
   </g>
   <g id="patch_162">
    <path d="M 241.749453 330.1355 
L 242.869321 330.1355 
L 242.869321 310.968806 
L 241.749453 310.968806 
z
" clip-path="url(#pe41e23144b)" style="fill: #1f77b4; fill-opacity: 0.75; stroke: #000000; stroke-width: 0.118523; stroke-linejoin: miter"/>
   </g>
   <g id="patch_163">
    <path d="M 242.869321 330.1355 
L 243.989189 330.1355 
L 243.989189 311.493921 
L 242.869321 311.493921 
z
" clip-path="url(#pe41e23144b)" style="fill: #1f77b4; fill-opacity: 0.75; stroke: #000000; stroke-width: 0.118523; stroke-linejoin: miter"/>
   </g>
   <g id="patch_164">
    <path d="M 243.989189 330.1355 
L 245.109057 330.1355 
L 245.109057 312.194074 
L 243.989189 312.194074 
z
" clip-path="url(#pe41e23144b)" style="fill: #1f77b4; fill-opacity: 0.75; stroke: #000000; stroke-width: 0.118523; stroke-linejoin: miter"/>
   </g>
   <g id="patch_165">
    <path d="M 245.109057 330.1355 
L 246.228925 330.1355 
L 246.228925 312.369112 
L 245.109057 312.369112 
z
" clip-path="url(#pe41e23144b)" style="fill: #1f77b4; fill-opacity: 0.75; stroke: #000000; stroke-width: 0.118523; stroke-linejoin: miter"/>
   </g>
   <g id="patch_166">
    <path d="M 246.228925 330.1355 
L 247.348793 330.1355 
L 247.348793 312.894227 
L 246.228925 312.894227 
z
" clip-path="url(#pe41e23144b)" style="fill: #1f77b4; fill-opacity: 0.75; stroke: #000000; stroke-width: 0.118523; stroke-linejoin: miter"/>
   </g>
   <g id="patch_167">
    <path d="M 247.348793 330.1355 
L 248.468661 330.1355 
L 248.468661 314.207015 
L 247.348793 314.207015 
z
" clip-path="url(#pe41e23144b)" style="fill: #1f77b4; fill-opacity: 0.75; stroke: #000000; stroke-width: 0.118523; stroke-linejoin: miter"/>
   </g>
   <g id="patch_168">
    <path d="M 248.468661 330.1355 
L 249.588529 330.1355 
L 249.588529 312.719189 
L 248.468661 312.719189 
z
" clip-path="url(#pe41e23144b)" style="fill: #1f77b4; fill-opacity: 0.75; stroke: #000000; stroke-width: 0.118523; stroke-linejoin: miter"/>
   </g>
   <g id="patch_169">
    <path d="M 249.588529 330.1355 
L 250.708397 330.1355 
L 250.708397 314.64461 
L 249.588529 314.64461 
z
" clip-path="url(#pe41e23144b)" style="fill: #1f77b4; fill-opacity: 0.75; stroke: #000000; stroke-width: 0.118523; stroke-linejoin: miter"/>
   </g>
   <g id="patch_170">
    <path d="M 250.708397 330.1355 
L 251.828265 330.1355 
L 251.828265 313.6819 
L 250.708397 313.6819 
z
" clip-path="url(#pe41e23144b)" style="fill: #1f77b4; fill-opacity: 0.75; stroke: #000000; stroke-width: 0.118523; stroke-linejoin: miter"/>
   </g>
   <g id="patch_171">
    <path d="M 251.828265 330.1355 
L 252.948133 330.1355 
L 252.948133 314.819649 
L 251.828265 314.819649 
z
" clip-path="url(#pe41e23144b)" style="fill: #1f77b4; fill-opacity: 0.75; stroke: #000000; stroke-width: 0.118523; stroke-linejoin: miter"/>
   </g>
   <g id="patch_172">
    <path d="M 252.948133 330.1355 
L 254.068001 330.1355 
L 254.068001 316.219955 
L 252.948133 316.219955 
z
" clip-path="url(#pe41e23144b)" style="fill: #1f77b4; fill-opacity: 0.75; stroke: #000000; stroke-width: 0.118523; stroke-linejoin: miter"/>
   </g>
   <g id="patch_173">
    <path d="M 254.068001 330.1355 
L 255.187869 330.1355 
L 255.187869 315.607321 
L 254.068001 315.607321 
z
" clip-path="url(#pe41e23144b)" style="fill: #1f77b4; fill-opacity: 0.75; stroke: #000000; stroke-width: 0.118523; stroke-linejoin: miter"/>
   </g>
   <g id="patch_174">
    <path d="M 255.187869 330.1355 
L 256.307737 330.1355 
L 256.307737 315.782359 
L 255.187869 315.782359 
z
" clip-path="url(#pe41e23144b)" style="fill: #1f77b4; fill-opacity: 0.75; stroke: #000000; stroke-width: 0.118523; stroke-linejoin: miter"/>
   </g>
   <g id="patch_175">
    <path d="M 256.307737 330.1355 
L 257.427605 330.1355 
L 257.427605 317.707781 
L 256.307737 317.707781 
z
" clip-path="url(#pe41e23144b)" style="fill: #1f77b4; fill-opacity: 0.75; stroke: #000000; stroke-width: 0.118523; stroke-linejoin: miter"/>
   </g>
   <g id="patch_176">
    <path d="M 257.427605 330.1355 
L 258.547473 330.1355 
L 258.547473 318.407934 
L 257.427605 318.407934 
z
" clip-path="url(#pe41e23144b)" style="fill: #1f77b4; fill-opacity: 0.75; stroke: #000000; stroke-width: 0.118523; stroke-linejoin: miter"/>
   </g>
   <g id="patch_177">
    <path d="M 258.547473 330.1355 
L 259.667341 330.1355 
L 259.667341 319.80824 
L 258.547473 319.80824 
z
" clip-path="url(#pe41e23144b)" style="fill: #1f77b4; fill-opacity: 0.75; stroke: #000000; stroke-width: 0.118523; stroke-linejoin: miter"/>
   </g>
   <g id="patch_178">
    <path d="M 259.667341 330.1355 
L 260.787209 330.1355 
L 260.787209 319.80824 
L 259.667341 319.80824 
z
" clip-path="url(#pe41e23144b)" style="fill: #1f77b4; fill-opacity: 0.75; stroke: #000000; stroke-width: 0.118523; stroke-linejoin: miter"/>
   </g>
   <g id="patch_179">
    <path d="M 260.787209 330.1355 
L 261.907077 330.1355 
L 261.907077 319.545683 
L 260.787209 319.545683 
z
" clip-path="url(#pe41e23144b)" style="fill: #1f77b4; fill-opacity: 0.75; stroke: #000000; stroke-width: 0.118523; stroke-linejoin: miter"/>
   </g>
   <g id="patch_180">
    <path d="M 261.907077 330.1355 
L 263.026945 330.1355 
L 263.026945 321.646142 
L 261.907077 321.646142 
z
" clip-path="url(#pe41e23144b)" style="fill: #1f77b4; fill-opacity: 0.75; stroke: #000000; stroke-width: 0.118523; stroke-linejoin: miter"/>
   </g>
   <g id="patch_181">
    <path d="M 263.026945 330.1355 
L 264.146813 330.1355 
L 264.146813 321.296066 
L 263.026945 321.296066 
z
" clip-path="url(#pe41e23144b)" style="fill: #1f77b4; fill-opacity: 0.75; stroke: #000000; stroke-width: 0.118523; stroke-linejoin: miter"/>
   </g>
   <g id="patch_182">
    <path d="M 264.146813 330.1355 
L 265.266681 330.1355 
L 265.266681 321.383585 
L 264.146813 321.383585 
z
" clip-path="url(#pe41e23144b)" style="fill: #1f77b4; fill-opacity: 0.75; stroke: #000000; stroke-width: 0.118523; stroke-linejoin: miter"/>
   </g>
   <g id="patch_183">
    <path d="M 265.266681 330.1355 
L 266.386549 330.1355 
L 266.386549 322.258776 
L 265.266681 322.258776 
z
" clip-path="url(#pe41e23144b)" style="fill: #1f77b4; fill-opacity: 0.75; stroke: #000000; stroke-width: 0.118523; stroke-linejoin: miter"/>
   </g>
   <g id="patch_184">
    <path d="M 266.386549 330.1355 
L 267.506417 330.1355 
L 267.506417 324.97187 
L 266.386549 324.97187 
z
" clip-path="url(#pe41e23144b)" style="fill: #1f77b4; fill-opacity: 0.75; stroke: #000000; stroke-width: 0.118523; stroke-linejoin: miter"/>
   </g>
   <g id="patch_185">
    <path d="M 267.506417 330.1355 
L 268.626285 330.1355 
L 268.626285 322.95893 
L 267.506417 322.95893 
z
" clip-path="url(#pe41e23144b)" style="fill: #1f77b4; fill-opacity: 0.75; stroke: #000000; stroke-width: 0.118523; stroke-linejoin: miter"/>
   </g>
   <g id="patch_186">
    <path d="M 268.626285 330.1355 
L 269.746153 330.1355 
L 269.746153 322.871411 
L 268.626285 322.871411 
z
" clip-path="url(#pe41e23144b)" style="fill: #1f77b4; fill-opacity: 0.75; stroke: #000000; stroke-width: 0.118523; stroke-linejoin: miter"/>
   </g>
   <g id="patch_187">
    <path d="M 269.746153 330.1355 
L 270.866021 330.1355 
L 270.866021 324.709313 
L 269.746153 324.709313 
z
" clip-path="url(#pe41e23144b)" style="fill: #1f77b4; fill-opacity: 0.75; stroke: #000000; stroke-width: 0.118523; stroke-linejoin: miter"/>
   </g>
   <g id="patch_188">
    <path d="M 270.866021 330.1355 
L 271.98589 330.1355 
L 271.98589 324.096679 
L 270.866021 324.096679 
z
" clip-path="url(#pe41e23144b)" style="fill: #1f77b4; fill-opacity: 0.75; stroke: #000000; stroke-width: 0.118523; stroke-linejoin: miter"/>
   </g>
   <g id="patch_189">
    <path d="M 271.98589 330.1355 
L 273.105758 330.1355 
L 273.105758 324.096679 
L 271.98589 324.096679 
z
" clip-path="url(#pe41e23144b)" style="fill: #1f77b4; fill-opacity: 0.75; stroke: #000000; stroke-width: 0.118523; stroke-linejoin: miter"/>
   </g>
   <g id="patch_190">
    <path d="M 273.105758 330.1355 
L 274.225626 330.1355 
L 274.225626 324.446755 
L 273.105758 324.446755 
z
" clip-path="url(#pe41e23144b)" style="fill: #1f77b4; fill-opacity: 0.75; stroke: #000000; stroke-width: 0.118523; stroke-linejoin: miter"/>
   </g>
   <g id="patch_191">
    <path d="M 274.225626 330.1355 
L 275.345494 330.1355 
L 275.345494 324.534274 
L 274.225626 324.534274 
z
" clip-path="url(#pe41e23144b)" style="fill: #1f77b4; fill-opacity: 0.75; stroke: #000000; stroke-width: 0.118523; stroke-linejoin: miter"/>
   </g>
   <g id="patch_192">
    <path d="M 275.345494 330.1355 
L 276.465362 330.1355 
L 276.465362 324.271717 
L 275.345494 324.271717 
z
" clip-path="url(#pe41e23144b)" style="fill: #1f77b4; fill-opacity: 0.75; stroke: #000000; stroke-width: 0.118523; stroke-linejoin: miter"/>
   </g>
   <g id="patch_193">
    <path d="M 276.465362 330.1355 
L 277.58523 330.1355 
L 277.58523 326.197138 
L 276.465362 326.197138 
z
" clip-path="url(#pe41e23144b)" style="fill: #1f77b4; fill-opacity: 0.75; stroke: #000000; stroke-width: 0.118523; stroke-linejoin: miter"/>
   </g>
   <g id="patch_194">
    <path d="M 277.58523 330.1355 
L 278.705098 330.1355 
L 278.705098 326.0221 
L 277.58523 326.0221 
z
" clip-path="url(#pe41e23144b)" style="fill: #1f77b4; fill-opacity: 0.75; stroke: #000000; stroke-width: 0.118523; stroke-linejoin: miter"/>
   </g>
   <g id="patch_195">
    <path d="M 278.705098 330.1355 
L 279.824966 330.1355 
L 279.824966 326.722253 
L 278.705098 326.722253 
z
" clip-path="url(#pe41e23144b)" style="fill: #1f77b4; fill-opacity: 0.75; stroke: #000000; stroke-width: 0.118523; stroke-linejoin: miter"/>
   </g>
   <g id="patch_196">
    <path d="M 279.824966 330.1355 
L 280.944834 330.1355 
L 280.944834 326.284657 
L 279.824966 326.284657 
z
" clip-path="url(#pe41e23144b)" style="fill: #1f77b4; fill-opacity: 0.75; stroke: #000000; stroke-width: 0.118523; stroke-linejoin: miter"/>
   </g>
   <g id="patch_197">
    <path d="M 280.944834 330.1355 
L 282.064702 330.1355 
L 282.064702 326.634734 
L 280.944834 326.634734 
z
" clip-path="url(#pe41e23144b)" style="fill: #1f77b4; fill-opacity: 0.75; stroke: #000000; stroke-width: 0.118523; stroke-linejoin: miter"/>
   </g>
   <g id="patch_198">
    <path d="M 282.064702 330.1355 
L 283.18457 330.1355 
L 283.18457 327.422406 
L 282.064702 327.422406 
z
" clip-path="url(#pe41e23144b)" style="fill: #1f77b4; fill-opacity: 0.75; stroke: #000000; stroke-width: 0.118523; stroke-linejoin: miter"/>
   </g>
   <g id="patch_199">
    <path d="M 283.18457 330.1355 
L 284.304438 330.1355 
L 284.304438 326.547215 
L 283.18457 326.547215 
z
" clip-path="url(#pe41e23144b)" style="fill: #1f77b4; fill-opacity: 0.75; stroke: #000000; stroke-width: 0.118523; stroke-linejoin: miter"/>
   </g>
   <g id="patch_200">
    <path d="M 284.304438 330.1355 
L 285.424306 330.1355 
L 285.424306 327.597445 
L 284.304438 327.597445 
z
" clip-path="url(#pe41e23144b)" style="fill: #1f77b4; fill-opacity: 0.75; stroke: #000000; stroke-width: 0.118523; stroke-linejoin: miter"/>
   </g>
   <g id="patch_201">
    <path d="M 285.424306 330.1355 
L 286.544174 330.1355 
L 286.544174 327.684964 
L 285.424306 327.684964 
z
" clip-path="url(#pe41e23144b)" style="fill: #1f77b4; fill-opacity: 0.75; stroke: #000000; stroke-width: 0.118523; stroke-linejoin: miter"/>
   </g>
   <g id="patch_202">
    <path d="M 286.544174 330.1355 
L 287.664042 330.1355 
L 287.664042 328.03504 
L 286.544174 328.03504 
z
" clip-path="url(#pe41e23144b)" style="fill: #1f77b4; fill-opacity: 0.75; stroke: #000000; stroke-width: 0.118523; stroke-linejoin: miter"/>
   </g>
   <g id="patch_203">
    <path d="M 287.664042 330.1355 
L 288.78391 330.1355 
L 288.78391 327.947521 
L 287.664042 327.947521 
z
" clip-path="url(#pe41e23144b)" style="fill: #1f77b4; fill-opacity: 0.75; stroke: #000000; stroke-width: 0.118523; stroke-linejoin: miter"/>
   </g>
   <g id="patch_204">
    <path d="M 288.78391 330.1355 
L 289.903778 330.1355 
L 289.903778 327.684964 
L 288.78391 327.684964 
z
" clip-path="url(#pe41e23144b)" style="fill: #1f77b4; fill-opacity: 0.75; stroke: #000000; stroke-width: 0.118523; stroke-linejoin: miter"/>
   </g>
   <g id="patch_205">
    <path d="M 289.903778 330.1355 
L 291.023646 330.1355 
L 291.023646 328.560155 
L 289.903778 328.560155 
z
" clip-path="url(#pe41e23144b)" style="fill: #1f77b4; fill-opacity: 0.75; stroke: #000000; stroke-width: 0.118523; stroke-linejoin: miter"/>
   </g>
   <g id="patch_206">
    <path d="M 291.023646 330.1355 
L 292.143514 330.1355 
L 292.143514 328.647674 
L 291.023646 328.647674 
z
" clip-path="url(#pe41e23144b)" style="fill: #1f77b4; fill-opacity: 0.75; stroke: #000000; stroke-width: 0.118523; stroke-linejoin: miter"/>
   </g>
   <g id="patch_207">
    <path d="M 292.143514 330.1355 
L 293.263382 330.1355 
L 293.263382 328.560155 
L 292.143514 328.560155 
z
" clip-path="url(#pe41e23144b)" style="fill: #1f77b4; fill-opacity: 0.75; stroke: #000000; stroke-width: 0.118523; stroke-linejoin: miter"/>
   </g>
   <g id="patch_208">
    <path d="M 293.263382 330.1355 
L 294.38325 330.1355 
L 294.38325 328.735194 
L 293.263382 328.735194 
z
" clip-path="url(#pe41e23144b)" style="fill: #1f77b4; fill-opacity: 0.75; stroke: #000000; stroke-width: 0.118523; stroke-linejoin: miter"/>
   </g>
   <g id="patch_209">
    <path d="M 294.38325 330.1355 
L 295.503118 330.1355 
L 295.503118 328.560155 
L 294.38325 328.560155 
z
" clip-path="url(#pe41e23144b)" style="fill: #1f77b4; fill-opacity: 0.75; stroke: #000000; stroke-width: 0.118523; stroke-linejoin: miter"/>
   </g>
   <g id="patch_210">
    <path d="M 295.503118 330.1355 
L 296.622986 330.1355 
L 296.622986 328.997751 
L 295.503118 328.997751 
z
" clip-path="url(#pe41e23144b)" style="fill: #1f77b4; fill-opacity: 0.75; stroke: #000000; stroke-width: 0.118523; stroke-linejoin: miter"/>
   </g>
   <g id="patch_211">
    <path d="M 296.622986 330.1355 
L 297.742854 330.1355 
L 297.742854 328.385117 
L 296.622986 328.385117 
z
" clip-path="url(#pe41e23144b)" style="fill: #1f77b4; fill-opacity: 0.75; stroke: #000000; stroke-width: 0.118523; stroke-linejoin: miter"/>
   </g>
   <g id="patch_212">
    <path d="M 297.742854 330.1355 
L 298.862722 330.1355 
L 298.862722 328.735194 
L 297.742854 328.735194 
z
" clip-path="url(#pe41e23144b)" style="fill: #1f77b4; fill-opacity: 0.75; stroke: #000000; stroke-width: 0.118523; stroke-linejoin: miter"/>
   </g>
   <g id="patch_213">
    <path d="M 298.862722 330.1355 
L 299.98259 330.1355 
L 299.98259 328.560155 
L 298.862722 328.560155 
z
" clip-path="url(#pe41e23144b)" style="fill: #1f77b4; fill-opacity: 0.75; stroke: #000000; stroke-width: 0.118523; stroke-linejoin: miter"/>
   </g>
   <g id="patch_214">
    <path d="M 299.98259 330.1355 
L 301.102458 330.1355 
L 301.102458 329.522866 
L 299.98259 329.522866 
z
" clip-path="url(#pe41e23144b)" style="fill: #1f77b4; fill-opacity: 0.75; stroke: #000000; stroke-width: 0.118523; stroke-linejoin: miter"/>
   </g>
   <g id="patch_215">
    <path d="M 301.102458 330.1355 
L 302.222326 330.1355 
L 302.222326 329.347828 
L 301.102458 329.347828 
z
" clip-path="url(#pe41e23144b)" style="fill: #1f77b4; fill-opacity: 0.75; stroke: #000000; stroke-width: 0.118523; stroke-linejoin: miter"/>
   </g>
   <g id="patch_216">
    <path d="M 302.222326 330.1355 
L 303.342194 330.1355 
L 303.342194 329.697904 
L 302.222326 329.697904 
z
" clip-path="url(#pe41e23144b)" style="fill: #1f77b4; fill-opacity: 0.75; stroke: #000000; stroke-width: 0.118523; stroke-linejoin: miter"/>
   </g>
   <g id="patch_217">
    <path d="M 303.342194 330.1355 
L 304.462062 330.1355 
L 304.462062 329.610385 
L 303.342194 329.610385 
z
" clip-path="url(#pe41e23144b)" style="fill: #1f77b4; fill-opacity: 0.75; stroke: #000000; stroke-width: 0.118523; stroke-linejoin: miter"/>
   </g>
   <g id="patch_218">
    <path d="M 304.462062 330.1355 
L 305.58193 330.1355 
L 305.58193 329.347828 
L 304.462062 329.347828 
z
" clip-path="url(#pe41e23144b)" style="fill: #1f77b4; fill-opacity: 0.75; stroke: #000000; stroke-width: 0.118523; stroke-linejoin: miter"/>
   </g>
   <g id="patch_219">
    <path d="M 305.58193 330.1355 
L 306.701798 330.1355 
L 306.701798 329.610385 
L 305.58193 329.610385 
z
" clip-path="url(#pe41e23144b)" style="fill: #1f77b4; fill-opacity: 0.75; stroke: #000000; stroke-width: 0.118523; stroke-linejoin: miter"/>
   </g>
   <g id="patch_220">
    <path d="M 306.701798 330.1355 
L 307.821666 330.1355 
L 307.821666 329.872943 
L 306.701798 329.872943 
z
" clip-path="url(#pe41e23144b)" style="fill: #1f77b4; fill-opacity: 0.75; stroke: #000000; stroke-width: 0.118523; stroke-linejoin: miter"/>
   </g>
   <g id="patch_221">
    <path d="M 307.821666 330.1355 
L 308.941534 330.1355 
L 308.941534 329.610385 
L 307.821666 329.610385 
z
" clip-path="url(#pe41e23144b)" style="fill: #1f77b4; fill-opacity: 0.75; stroke: #000000; stroke-width: 0.118523; stroke-linejoin: miter"/>
   </g>
   <g id="patch_222">
    <path d="M 308.941534 330.1355 
L 310.061402 330.1355 
L 310.061402 329.872943 
L 308.941534 329.872943 
z
" clip-path="url(#pe41e23144b)" style="fill: #1f77b4; fill-opacity: 0.75; stroke: #000000; stroke-width: 0.118523; stroke-linejoin: miter"/>
   </g>
   <g id="patch_223">
    <path d="M 310.061402 330.1355 
L 311.181271 330.1355 
L 311.181271 329.610385 
L 310.061402 329.610385 
z
" clip-path="url(#pe41e23144b)" style="fill: #1f77b4; fill-opacity: 0.75; stroke: #000000; stroke-width: 0.118523; stroke-linejoin: miter"/>
   </g>
   <g id="patch_224">
    <path d="M 311.181271 330.1355 
L 312.301139 330.1355 
L 312.301139 329.610385 
L 311.181271 329.610385 
z
" clip-path="url(#pe41e23144b)" style="fill: #1f77b4; fill-opacity: 0.75; stroke: #000000; stroke-width: 0.118523; stroke-linejoin: miter"/>
   </g>
   <g id="patch_225">
    <path d="M 312.301139 330.1355 
L 313.421007 330.1355 
L 313.421007 329.697904 
L 312.301139 329.697904 
z
" clip-path="url(#pe41e23144b)" style="fill: #1f77b4; fill-opacity: 0.75; stroke: #000000; stroke-width: 0.118523; stroke-linejoin: miter"/>
   </g>
   <g id="patch_226">
    <path d="M 313.421007 330.1355 
L 314.540875 330.1355 
L 314.540875 329.872943 
L 313.421007 329.872943 
z
" clip-path="url(#pe41e23144b)" style="fill: #1f77b4; fill-opacity: 0.75; stroke: #000000; stroke-width: 0.118523; stroke-linejoin: miter"/>
   </g>
   <g id="patch_227">
    <path d="M 314.540875 330.1355 
L 315.660743 330.1355 
L 315.660743 330.047981 
L 314.540875 330.047981 
z
" clip-path="url(#pe41e23144b)" style="fill: #1f77b4; fill-opacity: 0.75; stroke: #000000; stroke-width: 0.118523; stroke-linejoin: miter"/>
   </g>
   <g id="patch_228">
    <path d="M 315.660743 330.1355 
L 316.780611 330.1355 
L 316.780611 330.1355 
L 315.660743 330.1355 
z
" clip-path="url(#pe41e23144b)" style="fill: #1f77b4; fill-opacity: 0.75; stroke: #000000; stroke-width: 0.118523; stroke-linejoin: miter"/>
   </g>
   <g id="patch_229">
    <path d="M 316.780611 330.1355 
L 317.900479 330.1355 
L 317.900479 330.047981 
L 316.780611 330.047981 
z
" clip-path="url(#pe41e23144b)" style="fill: #1f77b4; fill-opacity: 0.75; stroke: #000000; stroke-width: 0.118523; stroke-linejoin: miter"/>
   </g>
   <g id="patch_230">
    <path d="M 317.900479 330.1355 
L 319.020347 330.1355 
L 319.020347 329.872943 
L 317.900479 329.872943 
z
" clip-path="url(#pe41e23144b)" style="fill: #1f77b4; fill-opacity: 0.75; stroke: #000000; stroke-width: 0.118523; stroke-linejoin: miter"/>
   </g>
   <g id="patch_231">
    <path d="M 319.020347 330.1355 
L 320.140215 330.1355 
L 320.140215 330.1355 
L 319.020347 330.1355 
z
" clip-path="url(#pe41e23144b)" style="fill: #1f77b4; fill-opacity: 0.75; stroke: #000000; stroke-width: 0.118523; stroke-linejoin: miter"/>
   </g>
   <g id="patch_232">
    <path d="M 320.140215 330.1355 
L 321.260083 330.1355 
L 321.260083 329.697904 
L 320.140215 329.697904 
z
" clip-path="url(#pe41e23144b)" style="fill: #1f77b4; fill-opacity: 0.75; stroke: #000000; stroke-width: 0.118523; stroke-linejoin: miter"/>
   </g>
   <g id="patch_233">
    <path d="M 321.260083 330.1355 
L 322.379951 330.1355 
L 322.379951 330.047981 
L 321.260083 330.047981 
z
" clip-path="url(#pe41e23144b)" style="fill: #1f77b4; fill-opacity: 0.75; stroke: #000000; stroke-width: 0.118523; stroke-linejoin: miter"/>
   </g>
   <g id="patch_234">
    <path d="M 322.379951 330.1355 
L 323.499819 330.1355 
L 323.499819 329.960462 
L 322.379951 329.960462 
z
" clip-path="url(#pe41e23144b)" style="fill: #1f77b4; fill-opacity: 0.75; stroke: #000000; stroke-width: 0.118523; stroke-linejoin: miter"/>
   </g>
   <g id="patch_235">
    <path d="M 323.499819 330.1355 
L 324.619687 330.1355 
L 324.619687 330.047981 
L 323.499819 330.047981 
z
" clip-path="url(#pe41e23144b)" style="fill: #1f77b4; fill-opacity: 0.75; stroke: #000000; stroke-width: 0.118523; stroke-linejoin: miter"/>
   </g>
   <g id="patch_236">
    <path d="M 324.619687 330.1355 
L 325.739555 330.1355 
L 325.739555 329.960462 
L 324.619687 329.960462 
z
" clip-path="url(#pe41e23144b)" style="fill: #1f77b4; fill-opacity: 0.75; stroke: #000000; stroke-width: 0.118523; stroke-linejoin: miter"/>
   </g>
   <g id="patch_237">
    <path d="M 325.739555 330.1355 
L 326.859423 330.1355 
L 326.859423 330.1355 
L 325.739555 330.1355 
z
" clip-path="url(#pe41e23144b)" style="fill: #1f77b4; fill-opacity: 0.75; stroke: #000000; stroke-width: 0.118523; stroke-linejoin: miter"/>
   </g>
   <g id="patch_238">
    <path d="M 326.859423 330.1355 
L 327.979291 330.1355 
L 327.979291 330.047981 
L 326.859423 330.047981 
z
" clip-path="url(#pe41e23144b)" style="fill: #1f77b4; fill-opacity: 0.75; stroke: #000000; stroke-width: 0.118523; stroke-linejoin: miter"/>
   </g>
   <g id="patch_239">
    <path d="M 327.979291 330.1355 
L 329.099159 330.1355 
L 329.099159 329.960462 
L 327.979291 329.960462 
z
" clip-path="url(#pe41e23144b)" style="fill: #1f77b4; fill-opacity: 0.75; stroke: #000000; stroke-width: 0.118523; stroke-linejoin: miter"/>
   </g>
   <g id="matplotlib.axis_1">
    <g id="xtick_1">
     <g id="line2d_1">
      <defs>
       <path id="mdca1b90e27" d="M 0 0 
L 0 3.5 
" style="stroke: #000000; stroke-width: 0.8"/>
      </defs>
      <g>
       <use xlink:href="#mdca1b90e27" x="94.606632" y="330.1355" style="stroke: #000000; stroke-width: 0.8"/>
      </g>
     </g>
     <g id="text_1">
      <!-- $\mathdefault{10^{1}}$ -->
      <g transform="translate(87.656632 344.0855) scale(0.1 -0.1)">
       <defs>
        <path id="SimHei-31" d="M 1400 3600 
Q 1075 3275 575 2975 
L 575 3450 
Q 1200 3875 1600 4450 
L 1900 4450 
L 1900 150 
L 1400 150 
L 1400 3600 
z
" transform="scale(0.015625)"/>
        <path id="SimHei-30" d="M 225 2537 
Q 250 3200 412 3587 
Q 575 3975 875 4225 
Q 1175 4475 1612 4475 
Q 2050 4475 2375 4112 
Q 2700 3750 2800 3200 
Q 2900 2650 2862 1937 
Q 2825 1225 2612 775 
Q 2400 325 1975 150 
Q 1550 -25 1125 187 
Q 700 400 525 750 
Q 350 1100 275 1487 
Q 200 1875 225 2537 
z
M 750 2687 
Q 675 2000 800 1462 
Q 925 925 1212 700 
Q 1500 475 1800 612 
Q 2100 750 2237 1162 
Q 2375 1575 2375 2062 
Q 2375 2550 2337 2950 
Q 2300 3350 2112 3675 
Q 1925 4000 1612 4012 
Q 1300 4025 1062 3700 
Q 825 3375 750 2687 
z
" transform="scale(0.015625)"/>
       </defs>
       <use xlink:href="#SimHei-31" transform="translate(0 0.335938)"/>
       <use xlink:href="#SimHei-30" transform="translate(50 0.335938)"/>
       <use xlink:href="#SimHei-31" transform="translate(100.799805 32.328125) scale(0.7)"/>
      </g>
     </g>
    </g>
    <g id="xtick_2">
     <g id="line2d_2">
      <g>
       <use xlink:href="#mdca1b90e27" x="156.439023" y="330.1355" style="stroke: #000000; stroke-width: 0.8"/>
      </g>
     </g>
     <g id="text_2">
      <!-- $\mathdefault{10^{3}}$ -->
      <g transform="translate(149.489023 344.1855) scale(0.1 -0.1)">
       <defs>
        <path id="SimHei-33" d="M 250 1225 
L 700 1300 
Q 800 975 1025 762 
Q 1250 550 1587 562 
Q 1925 575 2125 837 
Q 2325 1100 2300 1437 
Q 2275 1775 2037 1962 
Q 1800 2150 1275 2225 
L 1275 2550 
Q 1800 2600 2037 2825 
Q 2275 3050 2250 3412 
Q 2225 3775 1925 3937 
Q 1625 4100 1287 3975 
Q 950 3850 750 3275 
L 300 3350 
Q 450 3800 712 4100 
Q 975 4400 1425 4450 
Q 1875 4500 2212 4337 
Q 2550 4175 2687 3837 
Q 2825 3500 2725 3100 
Q 2625 2700 2150 2400 
Q 2500 2250 2687 1950 
Q 2875 1650 2812 1162 
Q 2750 675 2375 375 
Q 2000 75 1525 87 
Q 1050 100 700 387 
Q 350 675 250 1225 
z
" transform="scale(0.015625)"/>
       </defs>
       <use xlink:href="#SimHei-31" transform="translate(0 0.789062)"/>
       <use xlink:href="#SimHei-30" transform="translate(50 0.789062)"/>
       <use xlink:href="#SimHei-33" transform="translate(100.799805 32.78125) scale(0.7)"/>
      </g>
     </g>
    </g>
    <g id="xtick_3">
     <g id="line2d_3">
      <g>
       <use xlink:href="#mdca1b90e27" x="218.271414" y="330.1355" style="stroke: #000000; stroke-width: 0.8"/>
      </g>
     </g>
     <g id="text_3">
      <!-- $\mathdefault{10^{5}}$ -->
      <g transform="translate(211.321414 344.0105) scale(0.1 -0.1)">
       <defs>
        <path id="SimHei-35" d="M 550 1325 
Q 725 650 1150 575 
Q 1575 500 1837 662 
Q 2100 825 2212 1087 
Q 2325 1350 2312 1675 
Q 2300 2000 2137 2225 
Q 1975 2450 1725 2525 
Q 1475 2600 1162 2525 
Q 850 2450 650 2175 
L 225 2225 
Q 275 2375 700 4375 
L 2675 4375 
L 2675 3925 
L 1075 3925 
Q 950 3250 825 2850 
Q 1200 3025 1525 3012 
Q 1850 3000 2150 2862 
Q 2450 2725 2587 2487 
Q 2725 2250 2787 2012 
Q 2850 1775 2837 1500 
Q 2825 1225 2725 937 
Q 2625 650 2425 462 
Q 2225 275 1937 162 
Q 1650 50 1275 75 
Q 900 100 562 350 
Q 225 600 100 1200 
L 550 1325 
z
" transform="scale(0.015625)"/>
       </defs>
       <use xlink:href="#SimHei-31" transform="translate(0 0.15625)"/>
       <use xlink:href="#SimHei-30" transform="translate(50 0.15625)"/>
       <use xlink:href="#SimHei-35" transform="translate(100.799805 32.148438) scale(0.7)"/>
      </g>
     </g>
    </g>
    <g id="xtick_4">
     <g id="line2d_4">
      <g>
       <use xlink:href="#mdca1b90e27" x="280.103805" y="330.1355" style="stroke: #000000; stroke-width: 0.8"/>
      </g>
     </g>
     <g id="text_4">
      <!-- $\mathdefault{10^{7}}$ -->
      <g transform="translate(273.153805 344.0105) scale(0.1 -0.1)">
       <defs>
        <path id="SimHei-37" d="M 850 150 
Q 1300 2050 2425 3925 
L 275 3925 
L 275 4375 
L 2950 4375 
L 2950 3950 
Q 1775 2050 1400 150 
L 850 150 
z
" transform="scale(0.015625)"/>
       </defs>
       <use xlink:href="#SimHei-31" transform="translate(0 0.15625)"/>
       <use xlink:href="#SimHei-30" transform="translate(50 0.15625)"/>
       <use xlink:href="#SimHei-37" transform="translate(100.799805 32.148438) scale(0.7)"/>
      </g>
     </g>
    </g>
    <g id="xtick_5">
     <g id="line2d_5">
      <g>
       <use xlink:href="#mdca1b90e27" x="341.936196" y="330.1355" style="stroke: #000000; stroke-width: 0.8"/>
      </g>
     </g>
     <g id="text_5">
      <!-- $\mathdefault{10^{9}}$ -->
      <g transform="translate(334.986196 344.0855) scale(0.1 -0.1)">
       <defs>
        <path id="SimHei-39" d="M 800 75 
Q 1350 1000 1700 1750 
Q 1075 1650 662 1912 
Q 250 2175 162 2625 
Q 75 3075 175 3437 
Q 275 3800 487 4037 
Q 700 4275 1000 4375 
Q 1300 4475 1537 4475 
Q 1775 4475 2025 4375 
Q 2275 4275 2475 4075 
Q 2675 3875 2750 3662 
Q 2825 3450 2825 3112 
Q 2825 2775 2575 2250 
Q 2325 1725 1350 75 
L 800 75 
z
M 662 2875 
Q 700 2550 937 2337 
Q 1175 2125 1450 2150 
Q 1725 2175 1887 2300 
Q 2050 2425 2200 2725 
Q 2300 3100 2250 3362 
Q 2200 3625 1987 3800 
Q 1775 3975 1525 3975 
Q 1375 4000 1137 3900 
Q 900 3800 762 3500 
Q 625 3200 662 2875 
z
" transform="scale(0.015625)"/>
       </defs>
       <use xlink:href="#SimHei-31" transform="translate(0 0.0625)"/>
       <use xlink:href="#SimHei-30" transform="translate(50 0.0625)"/>
       <use xlink:href="#SimHei-39" transform="translate(100.799805 32.054688) scale(0.7)"/>
      </g>
     </g>
    </g>
   </g>
   <g id="matplotlib.axis_2">
    <g id="ytick_1">
     <g id="line2d_6">
      <defs>
       <path id="m2df160fe08" d="M 0 0 
L -3.5 0 
" style="stroke: #000000; stroke-width: 0.8"/>
      </defs>
      <g>
       <use xlink:href="#m2df160fe08" x="50.42" y="330.1355" style="stroke: #000000; stroke-width: 0.8"/>
      </g>
     </g>
     <g id="text_6">
      <!-- 0 -->
      <g transform="translate(38.42 333.573) scale(0.1 -0.1)">
       <use xlink:href="#SimHei-30"/>
      </g>
     </g>
    </g>
    <g id="ytick_2">
     <g id="line2d_7">
      <g>
       <use xlink:href="#m2df160fe08" x="50.42" y="286.375925" style="stroke: #000000; stroke-width: 0.8"/>
      </g>
     </g>
     <g id="text_7">
      <!-- 500 -->
      <g transform="translate(28.42 289.813425) scale(0.1 -0.1)">
       <use xlink:href="#SimHei-35"/>
       <use xlink:href="#SimHei-30" x="50"/>
       <use xlink:href="#SimHei-30" x="100"/>
      </g>
     </g>
    </g>
    <g id="ytick_3">
     <g id="line2d_8">
      <g>
       <use xlink:href="#m2df160fe08" x="50.42" y="242.61635" style="stroke: #000000; stroke-width: 0.8"/>
      </g>
     </g>
     <g id="text_8">
      <!-- 1000 -->
      <g transform="translate(23.42 246.05385) scale(0.1 -0.1)">
       <use xlink:href="#SimHei-31"/>
       <use xlink:href="#SimHei-30" x="50"/>
       <use xlink:href="#SimHei-30" x="100"/>
       <use xlink:href="#SimHei-30" x="150"/>
      </g>
     </g>
    </g>
    <g id="ytick_4">
     <g id="line2d_9">
      <g>
       <use xlink:href="#m2df160fe08" x="50.42" y="198.856774" style="stroke: #000000; stroke-width: 0.8"/>
      </g>
     </g>
     <g id="text_9">
      <!-- 1500 -->
      <g transform="translate(23.42 202.294274) scale(0.1 -0.1)">
       <use xlink:href="#SimHei-31"/>
       <use xlink:href="#SimHei-35" x="50"/>
       <use xlink:href="#SimHei-30" x="100"/>
       <use xlink:href="#SimHei-30" x="150"/>
      </g>
     </g>
    </g>
    <g id="ytick_5">
     <g id="line2d_10">
      <g>
       <use xlink:href="#m2df160fe08" x="50.42" y="155.097199" style="stroke: #000000; stroke-width: 0.8"/>
      </g>
     </g>
     <g id="text_10">
      <!-- 2000 -->
      <g transform="translate(23.42 158.534699) scale(0.1 -0.1)">
       <defs>
        <path id="SimHei-32" d="M 300 250 
Q 325 625 650 925 
Q 975 1225 1475 1862 
Q 1975 2500 2125 2850 
Q 2275 3200 2237 3450 
Q 2200 3700 2000 3862 
Q 1800 4025 1537 4000 
Q 1275 3975 1037 3800 
Q 800 3625 675 3275 
L 200 3350 
Q 400 3925 712 4187 
Q 1025 4450 1450 4475 
Q 1700 4500 1900 4462 
Q 2100 4425 2312 4287 
Q 2525 4150 2662 3875 
Q 2800 3600 2762 3212 
Q 2725 2825 2375 2287 
Q 2025 1750 1025 600 
L 2825 600 
L 2825 150 
L 300 150 
L 300 250 
z
" transform="scale(0.015625)"/>
       </defs>
       <use xlink:href="#SimHei-32"/>
       <use xlink:href="#SimHei-30" x="50"/>
       <use xlink:href="#SimHei-30" x="100"/>
       <use xlink:href="#SimHei-30" x="150"/>
      </g>
     </g>
    </g>
    <g id="ytick_6">
     <g id="line2d_11">
      <g>
       <use xlink:href="#m2df160fe08" x="50.42" y="111.337624" style="stroke: #000000; stroke-width: 0.8"/>
      </g>
     </g>
     <g id="text_11">
      <!-- 2500 -->
      <g transform="translate(23.42 114.775124) scale(0.1 -0.1)">
       <use xlink:href="#SimHei-32"/>
       <use xlink:href="#SimHei-35" x="50"/>
       <use xlink:href="#SimHei-30" x="100"/>
       <use xlink:href="#SimHei-30" x="150"/>
      </g>
     </g>
    </g>
    <g id="ytick_7">
     <g id="line2d_12">
      <g>
       <use xlink:href="#m2df160fe08" x="50.42" y="67.578049" style="stroke: #000000; stroke-width: 0.8"/>
      </g>
     </g>
     <g id="text_12">
      <!-- 3000 -->
      <g transform="translate(23.42 71.015549) scale(0.1 -0.1)">
       <use xlink:href="#SimHei-33"/>
       <use xlink:href="#SimHei-30" x="50"/>
       <use xlink:href="#SimHei-30" x="100"/>
       <use xlink:href="#SimHei-30" x="150"/>
      </g>
     </g>
    </g>
    <g id="ytick_8">
     <g id="line2d_13">
      <g>
       <use xlink:href="#m2df160fe08" x="50.42" y="23.818474" style="stroke: #000000; stroke-width: 0.8"/>
      </g>
     </g>
     <g id="text_13">
      <!-- 3500 -->
      <g transform="translate(23.42 27.255974) scale(0.1 -0.1)">
       <use xlink:href="#SimHei-33"/>
       <use xlink:href="#SimHei-35" x="50"/>
       <use xlink:href="#SimHei-30" x="100"/>
       <use xlink:href="#SimHei-30" x="150"/>
      </g>
     </g>
    </g>
    <g id="text_14">
     <!-- Count -->
     <g transform="translate(18.17 182.96775) rotate(-90) scale(0.1 -0.1)">
      <defs>
       <path id="SimHei-43" d="M 2975 1825 
Q 2950 875 2575 475 
Q 2200 75 1675 75 
Q 1075 75 650 562 
Q 225 1050 225 2125 
Q 225 3300 637 3875 
Q 1050 4450 1700 4450 
Q 2250 4450 2612 4037 
Q 2975 3625 2950 2875 
L 2400 2875 
Q 2400 3425 2225 3700 
Q 2050 3975 1700 3975 
Q 1300 3975 1062 3562 
Q 825 3150 825 2175 
Q 825 1275 1062 912 
Q 1300 550 1675 550 
Q 1950 550 2175 812 
Q 2400 1075 2400 1825 
L 2975 1825 
z
" transform="scale(0.015625)"/>
       <path id="SimHei-6f" d="M 2925 1525 
Q 2925 875 2525 475 
Q 2125 75 1575 75 
Q 1025 75 625 475 
Q 225 875 225 1525 
Q 225 2175 625 2575 
Q 1025 2975 1575 2975 
Q 2125 2975 2525 2575 
Q 2925 2175 2925 1525 
z
M 2375 1525 
Q 2375 2025 2125 2275 
Q 1875 2525 1575 2525 
Q 1275 2525 1025 2275 
Q 775 2025 775 1525 
Q 775 1025 1025 775 
Q 1275 525 1575 525 
Q 1875 525 2125 775 
Q 2375 1025 2375 1525 
z
" transform="scale(0.015625)"/>
       <path id="SimHei-75" d="M 2800 125 
L 2300 125 
L 2300 650 
Q 2100 375 1862 225 
Q 1625 75 1250 75 
Q 800 75 575 325 
Q 350 575 350 950 
L 350 2925 
L 850 2925 
L 850 1125 
Q 850 825 1000 650 
Q 1150 475 1400 475 
Q 1725 475 2012 812 
Q 2300 1150 2300 1650 
L 2300 2925 
L 2800 2925 
L 2800 125 
z
" transform="scale(0.015625)"/>
       <path id="SimHei-6e" d="M 2800 125 
L 2300 125 
L 2300 1925 
Q 2300 2225 2150 2400 
Q 2000 2575 1750 2575 
Q 1425 2575 1137 2237 
Q 850 1900 850 1400 
L 850 125 
L 350 125 
L 350 2925 
L 850 2925 
L 850 2400 
Q 1050 2675 1287 2825 
Q 1525 2975 1900 2975 
Q 2350 2975 2575 2725 
Q 2800 2475 2800 2100 
L 2800 125 
z
" transform="scale(0.015625)"/>
       <path id="SimHei-74" d="M 2750 200 
Q 2625 150 2462 112 
Q 2300 75 2025 75 
Q 1575 75 1300 325 
Q 1025 575 1025 1025 
L 1025 2525 
L 175 2525 
L 175 2925 
L 1025 2925 
L 1025 3900 
L 1525 3900 
L 1525 2925 
L 2550 2925 
L 2550 2525 
L 1525 2525 
L 1525 1000 
Q 1525 800 1625 662 
Q 1725 525 2000 525 
Q 2275 525 2450 575 
Q 2625 625 2750 700 
L 2750 200 
z
" transform="scale(0.015625)"/>
      </defs>
      <use xlink:href="#SimHei-43"/>
      <use xlink:href="#SimHei-6f" x="50"/>
      <use xlink:href="#SimHei-75" x="100"/>
      <use xlink:href="#SimHei-6e" x="150"/>
      <use xlink:href="#SimHei-74" x="200"/>
     </g>
    </g>
   </g>
   <g id="patch_240">
    <path d="M 50.42 330.1355 
L 50.42 10.8 
" style="fill: none; stroke: #000000; stroke-width: 0.8; stroke-linejoin: miter; stroke-linecap: square"/>
   </g>
   <g id="patch_241">
    <path d="M 50.42 330.1355 
L 342.369595 330.1355 
" style="fill: none; stroke: #000000; stroke-width: 0.8; stroke-linejoin: miter; stroke-linecap: square"/>
   </g>
   <g id="text_15">
    <!-- views -->
    <g transform="translate(133.394798 4.8) scale(0.12 -0.12)">
     <defs>
      <path id="SimHei-7f51" d="M 5875 4900 
Q 5825 4575 5825 3975 
L 5825 0 
Q 5825 -400 5537 -462 
Q 5250 -525 4775 -600 
Q 4725 -350 4525 -50 
Q 5025 -75 5175 -25 
Q 5325 25 5325 250 
L 5325 4475 
L 1100 4475 
L 1100 -600 
L 550 -600 
Q 600 -100 600 250 
L 600 3975 
Q 600 4375 550 4900 
L 5875 4900 
z
M 3675 3525 
Q 4050 2800 4175 2600 
Q 4475 3625 4550 4050 
Q 4825 3900 5100 3775 
Q 4975 3600 4825 3150 
Q 4675 2700 4450 2100 
Q 4725 1575 5125 875 
Q 4850 800 4625 675 
L 4175 1575 
Q 4000 1225 3825 962 
Q 3650 700 3350 300 
Q 3175 500 2850 575 
Q 3075 800 3337 1125 
Q 3600 1450 3925 2075 
Q 3575 2800 3200 3300 
Q 3400 3375 3675 3525 
z
M 1725 3800 
Q 1875 3525 2037 3237 
Q 2200 2950 2375 2675 
Q 2675 3675 2725 4050 
Q 3000 3950 3325 3850 
Q 3175 3675 3050 3312 
Q 2925 2950 2650 2200 
Q 2875 1850 3200 1300 
Q 2950 1150 2775 975 
Q 2525 1500 2400 1700 
Q 1950 775 1600 325 
Q 1400 500 1175 575 
Q 1575 1000 2150 2175 
Q 1550 3250 1250 3600 
Q 1475 3700 1725 3800 
z
" transform="scale(0.015625)"/>
      <path id="SimHei-7edc" d="M 2400 3100 
Q 2675 3400 2850 3700 
Q 3025 4000 3187 4362 
Q 3350 4725 3450 5200 
Q 3725 5075 4050 5025 
Q 3900 4800 3725 4450 
L 5750 4450 
Q 5375 3700 5125 3325 
Q 4875 2950 4600 2650 
Q 4925 2425 5375 2275 
Q 5825 2125 6200 2050 
Q 6075 1850 5950 1525 
Q 5700 1600 5500 1675 
Q 5450 1325 5450 1025 
L 5450 125 
Q 5450 -250 5475 -650 
L 5000 -650 
L 5000 -175 
L 3500 -175 
L 3500 -700 
L 3025 -700 
Q 3050 -325 3050 0 
L 3050 1000 
Q 3050 1200 3025 1675 
Q 2875 1600 2600 1500 
Q 2500 1775 2325 1975 
Q 2700 2075 3162 2262 
Q 3625 2450 3900 2675 
Q 3575 3100 3350 3625 
Q 3075 3200 2800 2825 
Q 2650 2975 2400 3100 
z
M 1825 4725 
Q 1650 4500 1425 4037 
Q 1200 3575 900 3050 
L 1600 3050 
Q 1875 3575 2000 3975 
Q 2250 3775 2500 3650 
Q 2350 3475 2050 2937 
Q 1750 2400 1225 1525 
Q 1975 1650 2300 1700 
Q 2275 1375 2300 1225 
Q 1700 1150 1375 1087 
Q 1050 1025 625 925 
Q 550 1200 450 1400 
Q 700 1500 937 1850 
Q 1175 2200 1425 2700 
Q 750 2675 400 2525 
Q 325 2750 225 3025 
Q 525 3175 825 3787 
Q 1125 4400 1275 5000 
Q 1550 4825 1825 4725 
z
M 5000 225 
L 5000 1300 
L 3500 1300 
L 3500 225 
L 5000 225 
z
M 2375 700 
Q 2425 450 2425 250 
Q 2150 200 1637 25 
Q 1125 -150 650 -350 
Q 550 -50 425 200 
Q 1050 325 1462 425 
Q 1875 525 2375 700 
z
M 4275 2975 
Q 4425 3125 4637 3425 
Q 4850 3725 5000 4050 
L 3650 4050 
Q 3900 3425 4275 2975 
z
M 5475 1700 
Q 5125 1850 4812 2000 
Q 4500 2150 4225 2350 
Q 3925 2150 3662 2000 
Q 3400 1850 3075 1700 
L 5475 1700 
z
" transform="scale(0.015625)"/>
      <path id="SimHei-4e2d" d="M 3475 5200 
Q 3450 4500 3450 3875 
L 5625 3875 
Q 5600 3375 5600 2500 
Q 5600 1650 5625 1225 
L 5075 1225 
L 5075 1600 
L 3450 1600 
L 3450 525 
Q 3450 225 3475 -600 
L 2875 -600 
Q 2925 -150 2925 450 
L 2925 1600 
L 1300 1600 
L 1300 1225 
L 750 1225 
Q 775 1600 775 2500 
Q 775 3425 750 3875 
L 2925 3875 
Q 2925 4550 2900 5200 
L 3475 5200 
z
M 5075 2000 
L 5075 3475 
L 3450 3475 
L 3450 2000 
L 5075 2000 
z
M 2925 2000 
L 2925 3475 
L 1300 3475 
L 1300 2000 
L 2925 2000 
z
" transform="scale(0.015625)"/>
      <path id="SimHei-76" d="M 2875 2925 
L 1825 75 
L 1275 75 
L 225 2925 
L 750 2925 
L 1525 750 
L 1575 750 
L 2350 2925 
L 2875 2925 
z
" transform="scale(0.015625)"/>
      <path id="SimHei-69" d="M 1800 3725 
L 1300 3725 
L 1300 4375 
L 1800 4375 
L 1800 3725 
z
M 1800 125 
L 1300 125 
L 1300 2925 
L 1800 2925 
L 1800 125 
z
" transform="scale(0.015625)"/>
      <path id="SimHei-65" d="M 2850 1075 
Q 2800 625 2450 350 
Q 2100 75 1625 75 
Q 1025 75 637 462 
Q 250 850 250 1525 
Q 250 2200 637 2587 
Q 1025 2975 1625 2975 
Q 2150 2975 2487 2637 
Q 2825 2300 2825 1525 
L 800 1525 
Q 800 975 1037 750 
Q 1275 525 1625 525 
Q 1900 525 2075 662 
Q 2250 800 2300 1075 
L 2850 1075 
z
M 2250 1925 
Q 2200 2275 2025 2412 
Q 1850 2550 1575 2550 
Q 1325 2550 1125 2412 
Q 925 2275 825 1925 
L 2250 1925 
z
" transform="scale(0.015625)"/>
      <path id="SimHei-77" d="M 3075 2925 
L 2450 75 
L 1975 75 
L 1575 2250 
L 1525 2250 
L 1125 75 
L 650 75 
L 25 2925 
L 550 2925 
L 875 1050 
L 925 1050 
L 1275 2925 
L 1825 2925 
L 2175 1050 
L 2225 1050 
L 2550 2925 
L 3075 2925 
z
" transform="scale(0.015625)"/>
      <path id="SimHei-73" d="M 2750 900 
Q 2750 500 2437 287 
Q 2125 75 1650 75 
Q 1050 75 725 312 
Q 400 550 400 1000 
L 900 1000 
Q 900 700 1112 600 
Q 1325 500 1625 500 
Q 1925 500 2075 612 
Q 2225 725 2225 900 
Q 2225 1025 2100 1150 
Q 1975 1275 1475 1350 
Q 900 1425 687 1637 
Q 475 1850 475 2200 
Q 475 2500 762 2737 
Q 1050 2975 1600 2975 
Q 2100 2975 2387 2750 
Q 2675 2525 2675 2150 
L 2175 2150 
Q 2175 2375 2012 2462 
Q 1850 2550 1600 2550 
Q 1275 2550 1137 2437 
Q 1000 2325 1000 2175 
Q 1000 2000 1125 1900 
Q 1250 1800 1650 1750 
Q 2300 1650 2525 1437 
Q 2750 1225 2750 900 
z
" transform="scale(0.015625)"/>
      <path id="SimHei-5c5e" d="M 5550 3100 
Q 4450 3050 3825 3025 
L 3825 2675 
L 5375 2675 
Q 5350 2400 5350 2125 
Q 5350 1850 5375 1575 
L 3825 1575 
L 3825 1250 
L 5875 1250 
Q 5850 850 5850 525 
L 5850 -150 
Q 5825 -375 5687 -462 
Q 5550 -550 5000 -650 
Q 4950 -400 4775 -150 
Q 5100 -150 5262 -137 
Q 5425 -125 5400 125 
L 5400 900 
L 3825 900 
L 3825 450 
Q 4200 475 4425 500 
Q 4350 625 4300 700 
Q 4525 775 4650 875 
Q 4925 475 5125 125 
Q 4950 50 4725 -75 
Q 4675 25 4600 150 
Q 4375 150 3800 87 
Q 3225 25 2600 -75 
Q 2575 125 2450 375 
Q 3000 375 3400 425 
L 3400 900 
L 2200 900 
L 2200 -550 
L 1750 -550 
Q 1775 -200 1775 325 
Q 1775 850 1750 1250 
L 3400 1250 
L 3400 1575 
L 2000 1575 
Q 2025 1875 2025 2125 
Q 2025 2400 2000 2675 
L 3400 2675 
L 3400 3000 
Q 2475 2950 1950 2925 
Q 1900 3150 1775 3350 
Q 2700 3350 3612 3400 
Q 4525 3450 5250 3575 
Q 5375 3325 5550 3100 
z
M 5525 5000 
Q 5500 4600 5500 4300 
Q 5500 4025 5525 3750 
L 1475 3750 
Q 1475 3050 1462 2487 
Q 1450 1925 1375 1437 
Q 1300 950 1162 512 
Q 1025 75 750 -450 
Q 525 -325 250 -225 
Q 675 450 837 1100 
Q 1000 1750 1012 2487 
Q 1025 3225 1025 3675 
Q 1025 4125 1000 5000 
L 5525 5000 
z
M 5050 4100 
L 5050 4600 
L 1475 4600 
L 1475 4100 
L 5050 4100 
z
M 4950 1925 
L 4950 2350 
L 3825 2350 
L 3825 1925 
L 4950 1925 
z
M 3400 1925 
L 3400 2350 
L 2425 2350 
L 2425 1925 
L 3400 1925 
z
" transform="scale(0.015625)"/>
      <path id="SimHei-6027" d="M 3450 4525 
Q 3325 4075 3275 3750 
L 4050 3750 
L 4050 4275 
Q 4050 4700 4025 5100 
L 4550 5100 
Q 4525 4700 4525 4275 
L 4525 3750 
L 5025 3750 
Q 5350 3750 5800 3775 
L 5800 3300 
Q 5350 3325 5025 3325 
L 4525 3325 
L 4525 2000 
L 4975 2000 
Q 5350 2000 5725 2025 
L 5725 1550 
Q 5350 1575 4975 1575 
L 4525 1575 
L 4525 25 
L 5200 25 
Q 5625 25 6025 50 
L 6025 -400 
Q 5625 -375 5200 -375 
L 3275 -375 
Q 2825 -375 2400 -400 
L 2400 50 
Q 2825 25 3250 25 
L 4050 25 
L 4050 1575 
L 3625 1575 
Q 3300 1575 2875 1550 
L 2875 2025 
Q 3200 2000 3625 2000 
L 4050 2000 
L 4050 3325 
L 3175 3325 
Q 3100 2950 2775 2225 
Q 2500 2375 2325 2400 
Q 2675 3125 2775 3650 
Q 2875 4175 2950 4650 
Q 3200 4575 3450 4525 
z
M 1700 5150 
Q 1675 4650 1675 4175 
L 1675 425 
Q 1675 -100 1700 -625 
L 1175 -625 
Q 1200 -100 1200 425 
L 1200 4175 
Q 1200 4700 1175 5150 
L 1700 5150 
z
M 975 3725 
Q 825 2675 700 2150 
Q 450 2200 250 2250 
Q 425 2900 525 3800 
Q 725 3775 975 3725 
z
M 2125 4025 
Q 2325 3625 2525 3000 
Q 2300 2925 2125 2825 
Q 1950 3375 1750 3850 
Q 1950 3950 2125 4025 
z
" transform="scale(0.015625)"/>
      <path id="SimHei-7684" d="M 2100 4975 
Q 1975 4750 1750 3950 
L 2875 3950 
Q 2850 3525 2850 2875 
L 2850 675 
Q 2850 300 2875 -400 
L 2375 -400 
L 2375 100 
L 1100 100 
L 1100 -450 
L 600 -450 
Q 625 350 625 550 
L 625 2850 
Q 625 3525 600 3950 
L 1325 3950 
Q 1450 4525 1525 5150 
Q 1875 5025 2100 4975 
z
M 5825 3075 
Q 5800 1550 5700 175 
Q 5650 -275 5225 -425 
Q 4800 -575 4275 -625 
Q 4250 -350 4050 -50 
Q 4550 -75 4837 -25 
Q 5125 25 5200 200 
Q 5275 375 5312 1225 
Q 5350 2075 5375 3600 
L 3925 3600 
Q 3725 3125 3350 2475 
Q 3175 2650 2925 2750 
Q 3150 3050 3350 3475 
Q 3550 3900 3700 4400 
Q 3850 4900 3875 5175 
Q 4225 5025 4475 4950 
Q 4350 4750 4262 4512 
Q 4175 4275 4075 4050 
L 5850 4050 
Q 5825 3525 5825 3075 
z
M 2375 525 
L 2375 1850 
L 1100 1850 
L 1100 525 
L 2375 525 
z
M 2375 2275 
L 2375 3525 
L 1100 3525 
L 1100 2275 
L 2375 2275 
z
M 4350 2050 
Q 4500 1750 4700 1275 
Q 4525 1200 4225 1025 
Q 4050 1500 3900 1837 
Q 3750 2175 3600 2400 
Q 3775 2500 4050 2650 
L 4350 2050 
z
" transform="scale(0.015625)"/>
      <path id="SimHei-5206" d="M 1000 -650 
Q 825 -375 575 -225 
Q 975 -75 1300 137 
Q 1625 350 1875 662 
Q 2125 975 2250 1350 
Q 2375 1725 2425 2275 
Q 1850 2275 1500 2250 
L 1500 2775 
Q 1900 2750 2525 2750 
L 5025 2750 
Q 4975 2375 4950 2100 
L 4750 250 
Q 4700 -200 4350 -350 
Q 4000 -500 3575 -525 
Q 3550 -275 3325 50 
Q 3850 25 4037 87 
Q 4225 150 4275 525 
L 4450 2275 
L 2950 2275 
Q 2875 1625 2737 1187 
Q 2600 750 2350 425 
Q 2100 100 1750 -175 
Q 1400 -450 1000 -650 
z
M 3950 5175 
Q 4125 4650 4662 3975 
Q 5200 3300 6175 2800 
Q 5975 2625 5775 2275 
Q 5325 2600 4987 2887 
Q 4650 3175 4425 3425 
Q 4200 3675 3925 4137 
Q 3650 4600 3475 5000 
Q 3750 5075 3950 5175 
z
M 2700 4825 
Q 2475 4425 2325 4125 
Q 2175 3825 2025 3587 
Q 1875 3350 1575 2950 
Q 1275 2550 850 2125 
Q 625 2350 400 2475 
Q 900 2925 1187 3300 
Q 1475 3675 1737 4112 
Q 2000 4550 2200 5075 
Q 2400 4925 2700 4825 
z
" transform="scale(0.015625)"/>
      <path id="SimHei-5e03" d="M 2375 4225 
Q 2650 4775 2775 5300 
Q 3125 5175 3400 5075 
Q 3275 4975 2950 4225 
L 4800 4225 
Q 5550 4225 6025 4250 
L 6025 3800 
L 2725 3800 
Q 2325 3100 1975 2675 
L 3275 2675 
Q 3275 3225 3250 3575 
L 3775 3575 
Q 3750 3225 3750 2675 
L 5500 2675 
Q 5475 2225 5475 1775 
L 5475 750 
Q 5475 275 5212 150 
Q 4950 25 4450 -25 
Q 4400 325 4225 550 
Q 4800 550 4912 625 
Q 5025 700 5000 1025 
L 5000 2250 
L 3750 2250 
L 3750 550 
Q 3750 25 3775 -600 
L 3250 -600 
Q 3275 25 3275 550 
L 3275 2250 
L 2100 2250 
L 2100 0 
L 1600 0 
Q 1625 525 1625 1025 
L 1625 2225 
Q 1300 1850 650 1275 
Q 475 1475 200 1650 
Q 750 2025 1262 2562 
Q 1775 3100 2150 3800 
L 1550 3800 
Q 925 3800 400 3775 
L 400 4250 
Q 925 4225 1550 4225 
L 2375 4225 
z
" transform="scale(0.015625)"/>
     </defs>
     <use xlink:href="#SimHei-7f51"/>
     <use xlink:href="#SimHei-7edc" x="100"/>
     <use xlink:href="#SimHei-4e2d" x="200"/>
     <use xlink:href="#SimHei-76" x="300"/>
     <use xlink:href="#SimHei-69" x="350"/>
     <use xlink:href="#SimHei-65" x="400"/>
     <use xlink:href="#SimHei-77" x="450"/>
     <use xlink:href="#SimHei-73" x="500"/>
     <use xlink:href="#SimHei-5c5e" x="550"/>
     <use xlink:href="#SimHei-6027" x="650"/>
     <use xlink:href="#SimHei-7684" x="750"/>
     <use xlink:href="#SimHei-5206" x="850"/>
     <use xlink:href="#SimHei-5e03" x="950"/>
    </g>
   </g>
  </g>
 </g>
 <defs>
  <clipPath id="pe41e23144b">
   <rect x="50.42" y="10.8" width="291.949595" height="319.3355"/>
  </clipPath>
 </defs>
</svg>
